{
 "cells": [
  {
   "cell_type": "code",
   "execution_count": 1,
   "metadata": {},
   "outputs": [],
   "source": [
    "import mido"
   ]
  },
  {
   "cell_type": "markdown",
   "metadata": {},
   "source": [
    "# Create Message"
   ]
  },
  {
   "cell_type": "code",
   "execution_count": 2,
   "metadata": {},
   "outputs": [],
   "source": [
    "msg = mido.Message('note_on', note=60)"
   ]
  },
  {
   "cell_type": "code",
   "execution_count": 3,
   "metadata": {},
   "outputs": [
    {
     "data": {
      "text/plain": [
       "'note_on'"
      ]
     },
     "execution_count": 3,
     "metadata": {},
     "output_type": "execute_result"
    }
   ],
   "source": [
    "msg.type"
   ]
  },
  {
   "cell_type": "code",
   "execution_count": 4,
   "metadata": {},
   "outputs": [
    {
     "data": {
      "text/plain": [
       "60"
      ]
     },
     "execution_count": 4,
     "metadata": {},
     "output_type": "execute_result"
    }
   ],
   "source": [
    "msg.note"
   ]
  },
  {
   "cell_type": "code",
   "execution_count": 5,
   "metadata": {},
   "outputs": [
    {
     "data": {
      "text/plain": [
       "0"
      ]
     },
     "execution_count": 5,
     "metadata": {},
     "output_type": "execute_result"
    }
   ],
   "source": [
    "msg.time"
   ]
  },
  {
   "cell_type": "code",
   "execution_count": 6,
   "metadata": {},
   "outputs": [
    {
     "data": {
      "text/plain": [
       "[144, 60, 64]"
      ]
     },
     "execution_count": 6,
     "metadata": {},
     "output_type": "execute_result"
    }
   ],
   "source": [
    "msg.bytes()"
   ]
  },
  {
   "cell_type": "code",
   "execution_count": 7,
   "metadata": {},
   "outputs": [],
   "source": [
    "port = mido.open_output()"
   ]
  },
  {
   "cell_type": "code",
   "execution_count": 8,
   "metadata": {},
   "outputs": [],
   "source": [
    "port.send(msg)"
   ]
  },
  {
   "cell_type": "markdown",
   "metadata": {},
   "source": [
    "# Play example music"
   ]
  },
  {
   "cell_type": "code",
   "execution_count": 9,
   "metadata": {},
   "outputs": [],
   "source": [
    "mid = mido.MidiFile('../songs/Guren no Yumiya (From_Attack on Titan_).mid')"
   ]
  },
  {
   "cell_type": "code",
   "execution_count": 10,
   "metadata": {},
   "outputs": [
    {
     "name": "stdout",
     "output_type": "stream",
     "text": [
      "control_change channel=0 control=0 value=121 time=2.651936\n",
      "control_change channel=0 control=32 value=0 time=0\n",
      "program_change channel=0 program=0 time=0\n",
      "control_change channel=0 control=7 value=101 time=0\n",
      "control_change channel=0 control=7 value=102 time=0\n",
      "control_change channel=0 control=7 value=110 time=0\n",
      "control_change channel=0 control=10 value=64 time=0\n",
      "control_change channel=0 control=0 value=121 time=0\n",
      "control_change channel=0 control=32 value=0 time=0\n",
      "program_change channel=0 program=0 time=0\n",
      "control_change channel=0 control=7 value=101 time=0\n",
      "control_change channel=0 control=7 value=102 time=0\n",
      "control_change channel=0 control=7 value=110 time=0\n",
      "control_change channel=0 control=10 value=64 time=0\n",
      "control_change channel=0 control=7 value=102 time=0.0034530416666666668\n",
      "control_change channel=0 control=7 value=110 time=0\n",
      "note_on channel=0 note=61 velocity=93 time=0\n",
      "control_change channel=0 control=7 value=102 time=0\n",
      "control_change channel=0 control=7 value=110 time=0\n",
      "note_on channel=0 note=37 velocity=84 time=0\n",
      "note_on channel=0 note=49 velocity=99 time=0\n",
      "note_off channel=0 note=61 velocity=0 time=0.17265208333333334\n",
      "note_on channel=0 note=61 velocity=88 time=0\n",
      "note_off channel=0 note=61 velocity=0 time=0.155386875\n",
      "note_on channel=0 note=64 velocity=89 time=0.009668516666666667\n",
      "note_off channel=0 note=64 velocity=0 time=0.15331505\n",
      "note_on channel=0 note=63 velocity=88 time=0.010359125\n",
      "note_off channel=0 note=37 velocity=0 time=0.16436478333333335\n",
      "note_off channel=0 note=49 velocity=0 time=0\n",
      "note_on channel=0 note=56 velocity=91 time=0\n",
      "note_off channel=0 note=63 velocity=0 time=0.1650553916666667\n",
      "note_on channel=0 note=59 velocity=88 time=0\n",
      "note_off channel=0 note=59 velocity=0 time=0.163674175\n",
      "note_on channel=0 note=59 velocity=89 time=0\n",
      "note_off channel=0 note=59 velocity=0 time=0.15400565833333335\n",
      "note_on channel=0 note=57 velocity=80 time=0.009668516666666667\n",
      "note_on channel=0 note=61 velocity=90 time=0\n",
      "note_off channel=0 note=56 velocity=0 time=0\n",
      "note_on channel=0 note=45 velocity=88 time=0\n",
      "note_off channel=0 note=45 velocity=0 time=0.15400565833333335\n",
      "note_on channel=0 note=52 velocity=88 time=0.011740341666666668\n",
      "note_off channel=0 note=57 velocity=0 time=0.1650553916666667\n",
      "note_off channel=0 note=61 velocity=0 time=0.009668516666666667\n",
      "note_on channel=0 note=61 velocity=88 time=0\n",
      "note_off channel=0 note=61 velocity=0 time=0.155386875\n",
      "note_on channel=0 note=64 velocity=89 time=0.009668516666666667\n",
      "note_off channel=0 note=64 velocity=0 time=0.15331505\n",
      "note_on channel=0 note=63 velocity=88 time=0.010359125\n",
      "note_off channel=0 note=63 velocity=0 time=0.32942017500000004\n",
      "note_on channel=0 note=59 velocity=88 time=0\n",
      "note_off channel=0 note=52 velocity=0 time=0.163674175\n",
      "note_on channel=0 note=37 velocity=80 time=0\n",
      "note_on channel=0 note=49 velocity=95 time=0\n",
      "note_off channel=0 note=37 velocity=0 time=0.15400565833333335\n",
      "note_off channel=0 note=49 velocity=0 time=0.009668516666666667\n",
      "note_on channel=0 note=44 velocity=88 time=0\n",
      "note_off channel=0 note=44 velocity=0 time=0.15400565833333335\n",
      "note_off channel=0 note=59 velocity=0 time=0.010359125\n",
      "note_on channel=0 note=61 velocity=85 time=0.0013812166666666667\n",
      "note_on channel=0 note=73 velocity=95 time=0\n",
      "note_on channel=0 note=37 velocity=84 time=0\n",
      "note_on channel=0 note=49 velocity=99 time=0\n",
      "note_off channel=0 note=61 velocity=0 time=0.17472390833333334\n",
      "note_off channel=0 note=73 velocity=0 time=0\n",
      "note_on channel=0 note=61 velocity=80 time=0\n",
      "note_on channel=0 note=73 velocity=94 time=0\n",
      "note_off channel=0 note=61 velocity=0 time=0.155386875\n",
      "note_off channel=0 note=73 velocity=0 time=0.009668516666666667\n",
      "note_on channel=0 note=64 velocity=81 time=0\n",
      "note_on channel=0 note=76 velocity=95 time=0\n",
      "note_off channel=0 note=64 velocity=0 time=0.15331505\n",
      "note_off channel=0 note=76 velocity=0 time=0.009668516666666667\n",
      "note_on channel=0 note=63 velocity=80 time=0\n",
      "note_on channel=0 note=75 velocity=94 time=0\n",
      "note_off channel=0 note=37 velocity=0 time=0.1650553916666667\n",
      "note_off channel=0 note=49 velocity=0 time=0\n",
      "note_on channel=0 note=49 velocity=91 time=0\n",
      "note_off channel=0 note=63 velocity=0 time=0.1650553916666667\n",
      "note_off channel=0 note=75 velocity=0 time=0\n",
      "note_on channel=0 note=59 velocity=80 time=0\n",
      "note_on channel=0 note=71 velocity=94 time=0\n",
      "note_off channel=0 note=59 velocity=0 time=0.163674175\n",
      "note_off channel=0 note=71 velocity=0 time=0\n",
      "note_on channel=0 note=59 velocity=81 time=0\n",
      "note_on channel=0 note=71 velocity=95 time=0\n",
      "note_off channel=0 note=59 velocity=0 time=0.15400565833333335\n",
      "note_off channel=0 note=71 velocity=0 time=0.009668516666666667\n",
      "note_on channel=0 note=61 velocity=80 time=0\n",
      "note_on channel=0 note=73 velocity=94 time=0\n",
      "note_off channel=0 note=49 velocity=0 time=0\n",
      "note_on channel=0 note=33 velocity=85 time=0\n",
      "note_off channel=0 note=33 velocity=0 time=0.15400565833333335\n",
      "note_on channel=0 note=45 velocity=88 time=0.011740341666666668\n",
      "note_off channel=0 note=61 velocity=0 time=0.17472390833333334\n",
      "note_off channel=0 note=73 velocity=0 time=0\n",
      "note_on channel=0 note=61 velocity=80 time=0\n",
      "note_on channel=0 note=73 velocity=94 time=0\n",
      "note_off channel=0 note=61 velocity=0 time=0.155386875\n",
      "note_off channel=0 note=73 velocity=0 time=0.009668516666666667\n",
      "note_on channel=0 note=64 velocity=81 time=0\n",
      "note_on channel=0 note=76 velocity=95 time=0\n",
      "note_off channel=0 note=64 velocity=0 time=0.15331505\n",
      "note_off channel=0 note=76 velocity=0 time=0.009668516666666667\n",
      "note_on channel=0 note=63 velocity=80 time=0\n",
      "note_on channel=0 note=75 velocity=94 time=0\n",
      "note_off channel=0 note=63 velocity=0 time=0.3301107833333334\n",
      "note_off channel=0 note=75 velocity=0 time=0\n",
      "note_on channel=0 note=59 velocity=80 time=0\n",
      "note_on channel=0 note=71 velocity=94 time=0\n",
      "note_off channel=0 note=45 velocity=0 time=0.163674175\n",
      "note_on channel=0 note=37 velocity=80 time=0\n",
      "note_on channel=0 note=49 velocity=95 time=0\n",
      "note_off channel=0 note=37 velocity=0 time=0.15400565833333335\n",
      "note_off channel=0 note=49 velocity=0 time=0.009668516666666667\n",
      "note_on channel=0 note=44 velocity=88 time=0\n",
      "note_off channel=0 note=44 velocity=0 time=0.15400565833333335\n",
      "note_off channel=0 note=59 velocity=0 time=0.010359125\n",
      "note_off channel=0 note=71 velocity=0 time=0\n",
      "note_on channel=0 note=73 velocity=85 time=0.0013812166666666667\n",
      "note_on channel=0 note=85 velocity=99 time=0\n",
      "note_on channel=0 note=37 velocity=84 time=0\n",
      "note_on channel=0 note=49 velocity=99 time=0\n",
      "note_off channel=0 note=73 velocity=0 time=0.17472390833333334\n",
      "note_off channel=0 note=85 velocity=0 time=0\n",
      "note_on channel=0 note=73 velocity=80 time=0\n",
      "note_on channel=0 note=85 velocity=94 time=0\n",
      "note_off channel=0 note=73 velocity=0 time=0.155386875\n",
      "note_off channel=0 note=85 velocity=0 time=0.009668516666666667\n",
      "note_on channel=0 note=76 velocity=81 time=0\n",
      "note_on channel=0 note=88 velocity=95 time=0\n",
      "note_off channel=0 note=76 velocity=0 time=0.15331505\n",
      "note_off channel=0 note=88 velocity=0 time=0.009668516666666667\n",
      "note_on channel=0 note=75 velocity=80 time=0\n",
      "note_on channel=0 note=87 velocity=94 time=0\n",
      "note_off channel=0 note=37 velocity=0 time=0.1650553916666667\n",
      "note_off channel=0 note=49 velocity=0 time=0\n",
      "note_on channel=0 note=49 velocity=91 time=0\n",
      "note_off channel=0 note=75 velocity=0 time=0.1650553916666667\n",
      "note_off channel=0 note=87 velocity=0 time=0\n",
      "note_on channel=0 note=71 velocity=80 time=0\n",
      "note_on channel=0 note=83 velocity=94 time=0\n",
      "note_off channel=0 note=71 velocity=0 time=0.163674175\n",
      "note_off channel=0 note=83 velocity=0 time=0\n",
      "note_on channel=0 note=71 velocity=81 time=0\n",
      "note_on channel=0 note=83 velocity=95 time=0\n",
      "note_off channel=0 note=71 velocity=0 time=0.15400565833333335\n",
      "note_off channel=0 note=83 velocity=0 time=0.009668516666666667\n",
      "note_on channel=0 note=73 velocity=80 time=0\n",
      "note_on channel=0 note=85 velocity=94 time=0\n",
      "note_off channel=0 note=49 velocity=0 time=0\n",
      "note_on channel=0 note=33 velocity=85 time=0\n",
      "note_off channel=0 note=33 velocity=0 time=0.15400565833333335\n",
      "note_on channel=0 note=45 velocity=93 time=0.011740341666666668\n",
      "note_off channel=0 note=73 velocity=0 time=0.17472390833333334\n",
      "note_off channel=0 note=85 velocity=0 time=0\n",
      "note_on channel=0 note=73 velocity=80 time=0\n",
      "note_on channel=0 note=85 velocity=94 time=0\n",
      "note_off channel=0 note=73 velocity=0 time=0.155386875\n",
      "note_off channel=0 note=85 velocity=0 time=0.009668516666666667\n",
      "note_on channel=0 note=76 velocity=81 time=0\n",
      "note_on channel=0 note=88 velocity=95 time=0\n"
     ]
    },
    {
     "name": "stdout",
     "output_type": "stream",
     "text": [
      "note_off channel=0 note=76 velocity=0 time=0.15331505\n",
      "note_off channel=0 note=88 velocity=0 time=0.009668516666666667\n",
      "note_on channel=0 note=75 velocity=80 time=0\n",
      "note_on channel=0 note=87 velocity=94 time=0\n",
      "note_off channel=0 note=45 velocity=0 time=0\n",
      "note_on channel=0 note=33 velocity=77 time=0\n",
      "note_on channel=0 note=45 velocity=94 time=0\n",
      "note_off channel=0 note=33 velocity=0 time=0.155386875\n",
      "note_off channel=0 note=45 velocity=0 time=0.009668516666666667\n",
      "note_on channel=0 note=32 velocity=80 time=0\n",
      "note_on channel=0 note=44 velocity=97 time=0\n",
      "note_off channel=0 note=32 velocity=0 time=0.155386875\n",
      "note_off channel=0 note=75 velocity=0 time=0.009668516666666667\n",
      "note_off channel=0 note=87 velocity=0 time=0\n",
      "note_on channel=0 note=71 velocity=80 time=0\n",
      "note_on channel=0 note=83 velocity=94 time=0\n",
      "note_off channel=0 note=44 velocity=0 time=0\n",
      "note_on channel=0 note=30 velocity=76 time=0\n",
      "note_on channel=0 note=42 velocity=94 time=0\n",
      "note_off channel=0 note=30 velocity=0 time=0.15400565833333335\n",
      "note_off channel=0 note=42 velocity=0 time=0.009668516666666667\n",
      "note_on channel=0 note=28 velocity=77 time=0\n",
      "note_on channel=0 note=40 velocity=94 time=0\n",
      "note_off channel=0 note=28 velocity=0 time=0.15400565833333335\n",
      "note_off channel=0 note=40 velocity=0 time=0.009668516666666667\n",
      "note_on channel=0 note=27 velocity=75 time=0\n",
      "note_on channel=0 note=39 velocity=93 time=0\n",
      "note_off channel=0 note=27 velocity=0 time=0.15400565833333335\n",
      "note_off channel=0 note=71 velocity=0 time=0.010359125\n",
      "note_off channel=0 note=83 velocity=0 time=0\n",
      "note_off channel=0 note=39 velocity=0 time=0\n",
      "note_on channel=0 note=80 velocity=85 time=0.0013812166666666667\n",
      "note_on channel=0 note=92 velocity=99 time=0\n",
      "note_on channel=0 note=25 velocity=80 time=0\n",
      "note_on channel=0 note=37 velocity=98 time=0\n",
      "note_off channel=0 note=80 velocity=0 time=0.3397793\n",
      "note_off channel=0 note=92 velocity=0 time=0\n",
      "note_on channel=0 note=64 velocity=89 time=0\n",
      "note_off channel=0 note=64 velocity=0 time=0.15331505\n",
      "note_on channel=0 note=66 velocity=88 time=0.010359125\n",
      "note_off channel=0 note=25 velocity=0 time=0.16436478333333335\n",
      "note_off channel=0 note=37 velocity=0 time=0\n",
      "note_on channel=0 note=56 velocity=91 time=0\n",
      "note_off channel=0 note=66 velocity=0 time=0.1650553916666667\n",
      "note_on channel=0 note=63 velocity=88 time=0\n",
      "note_off channel=0 note=56 velocity=0 time=0.163674175\n",
      "note_on channel=0 note=49 velocity=89 time=0\n",
      "note_off channel=0 note=63 velocity=0 time=0.163674175\n",
      "note_on channel=0 note=61 velocity=80 time=0\n",
      "note_on channel=0 note=64 velocity=90 time=0\n",
      "note_off channel=0 note=49 velocity=0 time=0.16436478333333335\n",
      "note_on channel=0 note=56 velocity=93 time=0.0013812166666666667\n",
      "note_off channel=0 note=61 velocity=0 time=0.17472390833333334\n",
      "note_off channel=0 note=64 velocity=0 time=0\n",
      "note_on channel=0 note=61 velocity=88 time=0\n",
      "note_off channel=0 note=56 velocity=0 time=0.1650553916666667\n",
      "note_on channel=0 note=56 velocity=89 time=0\n",
      "note_off channel=0 note=61 velocity=0 time=0.16298356666666666\n",
      "note_on channel=0 note=63 velocity=88 time=0\n",
      "note_off channel=0 note=56 velocity=0 time=0.1650553916666667\n",
      "note_on channel=0 note=56 velocity=91 time=0\n",
      "note_off channel=0 note=63 velocity=0 time=0.005588333333333333\n",
      "note_on channel=0 note=59 velocity=88 time=0\n",
      "note_off channel=0 note=56 velocity=0 time=0.0035122499999999997\n",
      "note_on channel=0 note=56 velocity=89 time=0\n",
      "note_off channel=0 note=56 velocity=0 time=0.07606484999999999\n",
      "note_on channel=0 note=49 velocity=88 time=0.0014128083333333334\n",
      "note_off channel=0 note=49 velocity=0 time=0.15752812916666667\n",
      "note_off channel=0 note=59 velocity=0 time=0\n",
      "note_on channel=0 note=68 velocity=85 time=0.0013888916666666665\n",
      "note_on channel=0 note=73 velocity=85 time=0\n",
      "note_on channel=0 note=80 velocity=99 time=0\n",
      "note_on channel=0 note=45 velocity=93 time=0\n",
      "note_off channel=0 note=45 velocity=0 time=0.16597255416666665\n",
      "note_on channel=0 note=52 velocity=88 time=0.010416687499999999\n",
      "note_off channel=0 note=52 velocity=0 time=0.15555586666666665\n",
      "note_off channel=0 note=68 velocity=0 time=0.009722241666666666\n",
      "note_off channel=0 note=73 velocity=0 time=0\n",
      "note_off channel=0 note=80 velocity=0 time=0\n",
      "note_on channel=0 note=64 velocity=89 time=0\n",
      "note_on channel=0 note=57 velocity=89 time=0\n",
      "note_off channel=0 note=64 velocity=0 time=0.15416697499999998\n",
      "note_off channel=0 note=57 velocity=0 time=0\n",
      "note_on channel=0 note=66 velocity=88 time=0.010416687499999999\n",
      "note_on channel=0 note=52 velocity=88 time=0\n",
      "note_off channel=0 note=52 velocity=0 time=0.15555586666666665\n",
      "note_on channel=0 note=57 velocity=91 time=0.010416687499999999\n",
      "note_off channel=0 note=66 velocity=0 time=0.1652781083333333\n",
      "note_on channel=0 note=63 velocity=88 time=0\n",
      "note_off channel=0 note=57 velocity=0 time=0.16458366249999998\n",
      "note_on channel=0 note=57 velocity=89 time=0\n",
      "note_off channel=0 note=63 velocity=0 time=0.16458366249999998\n",
      "note_on channel=0 note=61 velocity=80 time=0\n",
      "note_on channel=0 note=64 velocity=90 time=0\n",
      "note_off channel=0 note=57 velocity=0 time=0.1652781083333333\n",
      "note_on channel=0 note=45 velocity=93 time=0.0013888916666666665\n",
      "note_off channel=0 note=61 velocity=0 time=0.16597255416666665\n",
      "note_off channel=0 note=64 velocity=0 time=0.009722241666666666\n",
      "note_on channel=0 note=63 velocity=88 time=0\n",
      "note_off channel=0 note=45 velocity=0 time=0.16597255416666665\n",
      "note_on channel=0 note=52 velocity=89 time=0\n",
      "note_off channel=0 note=63 velocity=0 time=0.16388921666666664\n",
      "note_on channel=0 note=61 velocity=88 time=0\n",
      "note_off channel=0 note=52 velocity=0 time=0.16597255416666665\n",
      "note_on channel=0 note=57 velocity=91 time=0\n",
      "note_off channel=0 note=61 velocity=0 time=0.16597255416666665\n",
      "note_on channel=0 note=59 velocity=88 time=0\n",
      "note_off channel=0 note=57 velocity=0 time=0.16458366249999998\n",
      "note_on channel=0 note=54 velocity=89 time=0\n",
      "note_off channel=0 note=54 velocity=0 time=0.15486142083333332\n",
      "note_on channel=0 note=52 velocity=88 time=0.009722241666666666\n",
      "note_off channel=0 note=52 velocity=0 time=0.15486142083333332\n",
      "note_off channel=0 note=59 velocity=0 time=0.010416687499999999\n",
      "note_on channel=0 note=71 velocity=85 time=0.0013888916666666665\n",
      "note_on channel=0 note=76 velocity=85 time=0\n",
      "note_on channel=0 note=83 velocity=99 time=0\n",
      "note_on channel=0 note=40 velocity=92 time=0\n",
      "note_off channel=0 note=40 velocity=0 time=0.16597255416666665\n",
      "note_on channel=0 note=47 velocity=88 time=0.010416687499999999\n",
      "note_off channel=0 note=47 velocity=0 time=0.15555586666666665\n",
      "note_off channel=0 note=71 velocity=0 time=0.009722241666666666\n",
      "note_off channel=0 note=76 velocity=0 time=0\n",
      "note_off channel=0 note=83 velocity=0 time=0\n",
      "note_on channel=0 note=67 velocity=89 time=0\n",
      "note_on channel=0 note=52 velocity=89 time=0\n",
      "note_off channel=0 note=67 velocity=0 time=0.15416697499999998\n",
      "note_off channel=0 note=52 velocity=0 time=0\n",
      "note_on channel=0 note=69 velocity=88 time=0.010416687499999999\n",
      "note_on channel=0 note=47 velocity=88 time=0\n",
      "note_off channel=0 note=47 velocity=0 time=0.15555586666666665\n",
      "note_on channel=0 note=57 velocity=91 time=0.010416687499999999\n",
      "note_off channel=0 note=57 velocity=0 time=0.15555586666666665\n",
      "note_off channel=0 note=69 velocity=0 time=0.009722241666666666\n",
      "note_on channel=0 note=62 velocity=80 time=0\n",
      "note_on channel=0 note=66 velocity=94 time=0\n",
      "note_on channel=0 note=47 velocity=88 time=0.0006944458333333332\n",
      "note_off channel=0 note=47 velocity=0 time=0.15416697499999998\n",
      "note_on channel=0 note=52 velocity=89 time=0.010416687499999999\n",
      "note_off channel=0 note=52 velocity=0 time=0.15416697499999998\n",
      "note_off channel=0 note=62 velocity=0 time=0.009722241666666666\n",
      "note_off channel=0 note=66 velocity=0 time=0\n",
      "note_on channel=0 note=62 velocity=80 time=0\n",
      "note_on channel=0 note=67 velocity=94 time=0\n",
      "note_on channel=0 note=40 velocity=87 time=0\n",
      "note_off channel=0 note=40 velocity=0 time=0.15486142083333332\n",
      "note_on channel=0 note=47 velocity=93 time=0.011805579166666665\n",
      "note_off channel=0 note=62 velocity=0 time=0.1756947958333333\n",
      "note_off channel=0 note=67 velocity=0 time=0\n",
      "note_on channel=0 note=62 velocity=80 time=0\n",
      "note_on channel=0 note=64 velocity=94 time=0\n",
      "note_off channel=0 note=47 velocity=0 time=0.16597255416666665\n",
      "note_on channel=0 note=52 velocity=89 time=0\n",
      "note_off channel=0 note=62 velocity=0 time=0.16388921666666664\n",
      "note_off channel=0 note=64 velocity=0 time=0\n",
      "note_on channel=0 note=62 velocity=80 time=0\n",
      "note_on channel=0 note=66 velocity=94 time=0\n",
      "note_off channel=0 note=52 velocity=0 time=0.16597255416666665\n",
      "note_on channel=0 note=52 velocity=91 time=0\n"
     ]
    },
    {
     "name": "stdout",
     "output_type": "stream",
     "text": [
      "note_off channel=0 note=62 velocity=0 time=0.16597255416666665\n",
      "note_off channel=0 note=66 velocity=0 time=0\n",
      "note_on channel=0 note=62 velocity=88 time=0\n",
      "note_off channel=0 note=52 velocity=0 time=0.16458366249999998\n",
      "note_on channel=0 note=50 velocity=89 time=0\n",
      "note_off channel=0 note=50 velocity=0 time=0.15486142083333332\n",
      "note_on channel=0 note=43 velocity=88 time=0.009722241666666666\n",
      "note_off channel=0 note=43 velocity=0 time=0.15486142083333332\n",
      "note_off channel=0 note=62 velocity=0 time=0.010416687499999999\n",
      "note_on channel=0 note=71 velocity=85 time=0.0013888916666666665\n",
      "note_on channel=0 note=76 velocity=85 time=0\n",
      "note_on channel=0 note=83 velocity=99 time=0\n",
      "note_on channel=0 note=36 velocity=91 time=0\n",
      "note_off channel=0 note=36 velocity=0 time=0.16597255416666665\n",
      "note_on channel=0 note=43 velocity=88 time=0.010416687499999999\n",
      "note_off channel=0 note=43 velocity=0 time=0.15555586666666665\n",
      "note_off channel=0 note=71 velocity=0 time=0.009722241666666666\n",
      "note_off channel=0 note=76 velocity=0 time=0\n",
      "note_off channel=0 note=83 velocity=0 time=0\n",
      "note_on channel=0 note=67 velocity=89 time=0\n",
      "note_on channel=0 note=48 velocity=89 time=0\n",
      "note_off channel=0 note=67 velocity=0 time=0.15416697499999998\n",
      "note_off channel=0 note=48 velocity=0 time=0\n",
      "note_on channel=0 note=69 velocity=88 time=0.010416687499999999\n",
      "note_on channel=0 note=55 velocity=88 time=0\n",
      "note_off channel=0 note=55 velocity=0 time=0.15555586666666665\n",
      "note_on channel=0 note=60 velocity=91 time=0.010416687499999999\n",
      "note_off channel=0 note=69 velocity=0 time=0.005588333333333333\n",
      "note_on channel=0 note=62 velocity=80 time=0\n",
      "note_on channel=0 note=66 velocity=94 time=0\n",
      "note_off channel=0 note=60 velocity=0 time=0.0035122499999999997\n",
      "note_on channel=0 note=60 velocity=89 time=0\n",
      "note_off channel=0 note=62 velocity=0 time=0.0014128083333333334\n",
      "note_off channel=0 note=66 velocity=0 time=0\n",
      "note_on channel=0 note=62 velocity=80 time=0\n",
      "note_on channel=0 note=67 velocity=94 time=0\n",
      "note_off channel=0 note=60 velocity=0 time=0\n",
      "note_on channel=0 note=36 velocity=91 time=0.0013888916666666665\n",
      "note_off channel=0 note=62 velocity=0 time=0.1756947958333333\n",
      "note_off channel=0 note=67 velocity=0 time=0\n",
      "note_on channel=0 note=62 velocity=80 time=0\n",
      "note_on channel=0 note=66 velocity=94 time=0\n",
      "note_off channel=0 note=36 velocity=0 time=0.16597255416666665\n",
      "note_on channel=0 note=48 velocity=89 time=0\n",
      "note_off channel=0 note=62 velocity=0 time=0.16388921666666664\n",
      "note_off channel=0 note=66 velocity=0 time=0\n",
      "note_on channel=0 note=62 velocity=80 time=0\n",
      "note_on channel=0 note=64 velocity=94 time=0\n",
      "note_off channel=0 note=48 velocity=0 time=0.16597255416666665\n",
      "note_on channel=0 note=48 velocity=91 time=0\n",
      "note_off channel=0 note=62 velocity=0 time=0.16597255416666665\n",
      "note_off channel=0 note=64 velocity=0 time=0\n",
      "note_on channel=0 note=63 velocity=88 time=0\n",
      "note_off channel=0 note=48 velocity=0 time=0.16458366249999998\n",
      "note_on channel=0 note=49 velocity=89 time=0\n",
      "note_off channel=0 note=49 velocity=0 time=0.15486142083333332\n",
      "note_on channel=0 note=44 velocity=88 time=0.009722241666666666\n",
      "note_off channel=0 note=44 velocity=0 time=0.15486142083333332\n",
      "note_off channel=0 note=63 velocity=0 time=0.010416687499999999\n",
      "note_on channel=0 note=54 velocity=93 time=0.0013888916666666665\n",
      "note_on channel=0 note=25 velocity=88 time=0\n",
      "note_off channel=0 note=54 velocity=0 time=0.07638904166666666\n",
      "note_off channel=0 note=25 velocity=0 time=0\n",
      "note_on channel=0 note=55 velocity=88 time=0.10000019999999998\n",
      "note_on channel=0 note=37 velocity=87 time=0\n",
      "note_off channel=0 note=55 velocity=0 time=0.06527790833333333\n",
      "note_off channel=0 note=37 velocity=0 time=0\n",
      "note_on channel=0 note=56 velocity=89 time=0.10000019999999998\n",
      "note_on channel=0 note=27 velocity=84 time=0\n",
      "note_off channel=0 note=56 velocity=0 time=0.06388901666666666\n",
      "note_off channel=0 note=27 velocity=0 time=0\n",
      "note_on channel=0 note=57 velocity=88 time=0.10069464583333332\n",
      "note_on channel=0 note=39 velocity=87 time=0\n",
      "note_off channel=0 note=57 velocity=0 time=0.06527790833333333\n",
      "note_off channel=0 note=39 velocity=0 time=0\n",
      "note_on channel=0 note=58 velocity=91 time=0.10069464583333332\n",
      "note_on channel=0 note=29 velocity=87 time=0\n",
      "note_off channel=0 note=58 velocity=0 time=0.06597235416666666\n",
      "note_off channel=0 note=29 velocity=0 time=0\n",
      "note_on channel=0 note=59 velocity=88 time=0.10000019999999998\n",
      "note_on channel=0 note=41 velocity=88 time=0\n",
      "note_off channel=0 note=59 velocity=0 time=0.06388901666666666\n",
      "note_off channel=0 note=41 velocity=0 time=0\n",
      "note_on channel=0 note=60 velocity=89 time=0.10069464583333332\n",
      "note_on channel=0 note=30 velocity=85 time=0\n",
      "note_off channel=0 note=60 velocity=0 time=0.06388901666666666\n",
      "note_off channel=0 note=30 velocity=0 time=0\n",
      "note_on channel=0 note=61 velocity=88 time=0.10000019999999998\n",
      "note_on channel=0 note=42 velocity=88 time=0\n",
      "note_off channel=0 note=61 velocity=0 time=0.06527790833333333\n",
      "note_off channel=0 note=42 velocity=0 time=0\n",
      "note_on channel=0 note=59 velocity=107 time=0.10138909166666665\n",
      "note_on channel=0 note=63 velocity=121 time=0\n",
      "note_on channel=0 note=32 velocity=90 time=0\n",
      "note_off channel=0 note=32 velocity=0 time=0.07638904166666666\n",
      "note_off channel=0 note=59 velocity=0 time=0.09861130833333331\n",
      "note_off channel=0 note=63 velocity=0 time=0\n",
      "note_on channel=0 note=44 velocity=88 time=0.0013888916666666665\n",
      "note_off channel=0 note=44 velocity=0 time=0.06527790833333333\n",
      "note_on channel=0 note=59 velocity=89 time=0.10000019999999998\n",
      "note_on channel=0 note=32 velocity=86 time=0\n",
      "note_off channel=0 note=59 velocity=0 time=0.06388901666666666\n",
      "note_off channel=0 note=32 velocity=0 time=0\n",
      "note_on channel=0 note=61 velocity=88 time=0.10069464583333332\n",
      "note_on channel=0 note=44 velocity=88 time=0\n",
      "note_off channel=0 note=44 velocity=0 time=0.06527790833333333\n",
      "note_off channel=0 note=61 velocity=0 time=0.0666668\n",
      "note_on channel=0 note=32 velocity=88 time=0.03402784583333333\n",
      "note_off channel=0 note=32 velocity=0 time=0.06597235416666666\n",
      "note_on channel=0 note=58 velocity=88 time=0.10000019999999998\n",
      "note_on channel=0 note=44 velocity=88 time=0\n",
      "note_off channel=0 note=44 velocity=0 time=0.06388901666666666\n",
      "note_off channel=0 note=58 velocity=0 time=0.0645834625\n",
      "note_on channel=0 note=32 velocity=86 time=0.03611118333333333\n",
      "note_off channel=0 note=32 velocity=0 time=0.06388901666666666\n",
      "note_on channel=0 note=56 velocity=80 time=0.10000019999999998\n",
      "note_on channel=0 note=59 velocity=90 time=0\n",
      "note_on channel=0 note=44 velocity=88 time=0\n",
      "note_off channel=0 note=44 velocity=0 time=0.06527790833333333\n",
      "note_on channel=0 note=32 velocity=90 time=0.10138909166666665\n",
      "note_off channel=0 note=32 velocity=0 time=0.07638904166666666\n",
      "note_off channel=0 note=56 velocity=0 time=0.09930575416666665\n",
      "note_off channel=0 note=59 velocity=0 time=0\n",
      "note_on channel=0 note=56 velocity=88 time=0\n",
      "note_on channel=0 note=44 velocity=88 time=0.0006944458333333332\n",
      "note_off channel=0 note=44 velocity=0 time=0.06527790833333333\n",
      "note_off channel=0 note=56 velocity=0 time=0.0645834625\n",
      "note_on channel=0 note=32 velocity=86 time=0.035416737499999996\n",
      "note_off channel=0 note=32 velocity=0 time=0.06388901666666666\n",
      "note_on channel=0 note=54 velocity=80 time=0.10069464583333332\n",
      "note_on channel=0 note=58 velocity=94 time=0\n",
      "note_on channel=0 note=44 velocity=88 time=0\n",
      "note_off channel=0 note=44 velocity=0 time=0.06527790833333333\n",
      "note_off channel=0 note=54 velocity=0 time=0.0666668\n",
      "note_off channel=0 note=58 velocity=0 time=0\n",
      "note_on channel=0 note=32 velocity=88 time=0.03402784583333333\n",
      "note_off channel=0 note=32 velocity=0 time=0.06597235416666666\n",
      "note_on channel=0 note=54 velocity=88 time=0.10000019999999998\n",
      "note_on channel=0 note=44 velocity=88 time=0\n",
      "note_off channel=0 note=44 velocity=0 time=0.06388901666666666\n",
      "note_on channel=0 note=30 velocity=85 time=0.10069464583333332\n",
      "note_off channel=0 note=30 velocity=0 time=0.06388901666666666\n",
      "note_off channel=0 note=54 velocity=0 time=0.10000019999999998\n",
      "note_on channel=0 note=54 velocity=88 time=0\n",
      "note_on channel=0 note=42 velocity=88 time=0\n",
      "note_off channel=0 note=54 velocity=0 time=0.014583362499999999\n",
      "note_on channel=0 note=56 velocity=88 time=0.02569449583333333\n",
      "note_off channel=0 note=56 velocity=0 time=0.015277808333333332\n",
      "note_off channel=0 note=42 velocity=0 time=0.009722241666666666\n",
      "note_on channel=0 note=58 velocity=88 time=0.015972254166666665\n"
     ]
    },
    {
     "name": "stdout",
     "output_type": "stream",
     "text": [
      "note_off channel=0 note=58 velocity=0 time=0.015277808333333332\n",
      "note_on channel=0 note=63 velocity=88 time=0.02569449583333333\n",
      "note_off channel=0 note=63 velocity=0 time=0.01736114583333333\n",
      "note_on channel=0 note=63 velocity=107 time=0.027083387499999997\n",
      "note_on channel=0 note=75 velocity=121 time=0\n",
      "note_on channel=0 note=28 velocity=89 time=0\n",
      "note_off channel=0 note=28 velocity=0 time=0.07638904166666666\n",
      "note_off channel=0 note=63 velocity=0 time=0.09861130833333331\n",
      "note_off channel=0 note=75 velocity=0 time=0\n",
      "note_on channel=0 note=40 velocity=87 time=0.0013888916666666665\n",
      "note_off channel=0 note=40 velocity=0 time=0.06527790833333333\n",
      "note_on channel=0 note=59 velocity=89 time=0.10000019999999998\n",
      "note_on channel=0 note=28 velocity=85 time=0\n",
      "note_off channel=0 note=28 velocity=0 time=0.06388901666666666\n",
      "note_off channel=0 note=59 velocity=0 time=0.09027795833333332\n",
      "note_on channel=0 note=61 velocity=88 time=0.010416687499999999\n",
      "note_on channel=0 note=40 velocity=87 time=0\n",
      "note_off channel=0 note=40 velocity=0 time=0.06527790833333333\n",
      "note_off channel=0 note=61 velocity=0 time=0.0666668\n",
      "note_on channel=0 note=28 velocity=87 time=0.03402784583333333\n",
      "note_off channel=0 note=28 velocity=0 time=0.06597235416666666\n",
      "note_on channel=0 note=58 velocity=88 time=0.10000019999999998\n",
      "note_on channel=0 note=40 velocity=87 time=0\n",
      "note_off channel=0 note=40 velocity=0 time=0.06388901666666666\n",
      "note_off channel=0 note=58 velocity=0 time=0.0645834625\n",
      "note_on channel=0 note=28 velocity=85 time=0.03611118333333333\n",
      "note_off channel=0 note=28 velocity=0 time=0.06388901666666666\n",
      "note_on channel=0 note=56 velocity=80 time=0.10000019999999998\n",
      "note_on channel=0 note=59 velocity=90 time=0\n",
      "note_on channel=0 note=40 velocity=87 time=0\n",
      "note_off channel=0 note=40 velocity=0 time=0.06527790833333333\n",
      "note_on channel=0 note=28 velocity=89 time=0.10138909166666665\n",
      "note_off channel=0 note=28 velocity=0 time=0.07638904166666666\n",
      "note_off channel=0 note=56 velocity=0 time=0.08958351249999999\n",
      "note_off channel=0 note=59 velocity=0 time=0.009722241666666666\n",
      "note_on channel=0 note=58 velocity=88 time=0\n",
      "note_on channel=0 note=40 velocity=87 time=0.0006944458333333332\n",
      "note_off channel=0 note=40 velocity=0 time=0.06527790833333333\n",
      "note_off channel=0 note=58 velocity=0 time=0.0645834625\n",
      "note_on channel=0 note=28 velocity=85 time=0.035416737499999996\n",
      "note_off channel=0 note=28 velocity=0 time=0.06388901666666666\n",
      "note_on channel=0 note=56 velocity=88 time=0.10069464583333332\n",
      "note_on channel=0 note=40 velocity=87 time=0\n",
      "note_off channel=0 note=40 velocity=0 time=0.06527790833333333\n",
      "note_off channel=0 note=56 velocity=0 time=0.0666668\n",
      "note_on channel=0 note=28 velocity=87 time=0.03402784583333333\n",
      "note_off channel=0 note=28 velocity=0 time=0.06597235416666666\n",
      "note_on channel=0 note=54 velocity=88 time=0.10000019999999998\n",
      "note_on channel=0 note=40 velocity=87 time=0\n",
      "note_off channel=0 note=40 velocity=0 time=0.06388901666666666\n",
      "note_on channel=0 note=30 velocity=85 time=0.10069464583333332\n",
      "note_off channel=0 note=30 velocity=0 time=0.06388901666666666\n",
      "note_off channel=0 note=54 velocity=0 time=0.10000019999999998\n",
      "note_on channel=0 note=54 velocity=88 time=0\n",
      "note_on channel=0 note=42 velocity=88 time=0\n",
      "note_off channel=0 note=54 velocity=0 time=0.014583362499999999\n",
      "note_on channel=0 note=56 velocity=88 time=0.02569449583333333\n",
      "note_off channel=0 note=56 velocity=0 time=0.015277808333333332\n",
      "note_off channel=0 note=42 velocity=0 time=0.009722241666666666\n",
      "note_on channel=0 note=58 velocity=88 time=0.015972254166666665\n",
      "note_off channel=0 note=58 velocity=0 time=0.015277808333333332\n",
      "note_on channel=0 note=63 velocity=88 time=0.02569449583333333\n",
      "note_off channel=0 note=63 velocity=0 time=0.01736114583333333\n",
      "note_on channel=0 note=63 velocity=107 time=0.027083387499999997\n",
      "note_on channel=0 note=75 velocity=121 time=0\n",
      "note_on channel=0 note=32 velocity=90 time=0\n",
      "note_off channel=0 note=32 velocity=0 time=0.07638904166666666\n",
      "note_off channel=0 note=63 velocity=0 time=0.09861130833333331\n",
      "note_off channel=0 note=75 velocity=0 time=0\n",
      "note_on channel=0 note=44 velocity=88 time=0.0013888916666666665\n",
      "note_off channel=0 note=44 velocity=0 time=0.06527790833333333\n",
      "note_on channel=0 note=59 velocity=89 time=0.10000019999999998\n",
      "note_on channel=0 note=32 velocity=86 time=0\n",
      "note_off channel=0 note=59 velocity=0 time=0.06388901666666666\n",
      "note_off channel=0 note=32 velocity=0 time=0\n",
      "note_on channel=0 note=61 velocity=88 time=0.10069464583333332\n",
      "note_on channel=0 note=44 velocity=88 time=0\n",
      "note_off channel=0 note=44 velocity=0 time=0.06527790833333333\n",
      "note_off channel=0 note=61 velocity=0 time=0.0666668\n",
      "note_on channel=0 note=32 velocity=88 time=0.03402784583333333\n",
      "note_off channel=0 note=32 velocity=0 time=0.06597235416666666\n",
      "note_on channel=0 note=58 velocity=88 time=0.10000019999999998\n",
      "note_on channel=0 note=44 velocity=88 time=0\n",
      "note_off channel=0 note=44 velocity=0 time=0.06388901666666666\n",
      "note_off channel=0 note=58 velocity=0 time=0.0645834625\n",
      "note_on channel=0 note=32 velocity=86 time=0.03611118333333333\n",
      "note_off channel=0 note=32 velocity=0 time=0.06388901666666666\n",
      "note_on channel=0 note=56 velocity=80 time=0.10000019999999998\n",
      "note_on channel=0 note=59 velocity=90 time=0\n",
      "note_on channel=0 note=44 velocity=88 time=0\n",
      "note_off channel=0 note=44 velocity=0 time=0.06527790833333333\n",
      "note_on channel=0 note=32 velocity=90 time=0.10138909166666665\n",
      "note_off channel=0 note=32 velocity=0 time=0.07638904166666666\n",
      "note_off channel=0 note=56 velocity=0 time=0.09930575416666665\n",
      "note_off channel=0 note=59 velocity=0 time=0\n",
      "note_on channel=0 note=56 velocity=88 time=0\n",
      "note_on channel=0 note=44 velocity=88 time=0.0006944458333333332\n",
      "note_off channel=0 note=44 velocity=0 time=0.06527790833333333\n",
      "note_off channel=0 note=56 velocity=0 time=0.0645834625\n",
      "note_on channel=0 note=32 velocity=86 time=0.035416737499999996\n",
      "note_off channel=0 note=32 velocity=0 time=0.06388901666666666\n",
      "note_on channel=0 note=54 velocity=80 time=0.10069464583333332\n",
      "note_on channel=0 note=58 velocity=94 time=0\n",
      "note_on channel=0 note=44 velocity=88 time=0\n",
      "note_off channel=0 note=44 velocity=0 time=0.06527790833333333\n",
      "note_off channel=0 note=54 velocity=0 time=0.0666668\n",
      "note_off channel=0 note=58 velocity=0 time=0\n",
      "note_on channel=0 note=32 velocity=88 time=0.03402784583333333\n",
      "note_off channel=0 note=32 velocity=0 time=0.06597235416666666\n",
      "note_on channel=0 note=54 velocity=88 time=0.10000019999999998\n",
      "note_on channel=0 note=44 velocity=88 time=0\n",
      "note_off channel=0 note=44 velocity=0 time=0.06388901666666666\n",
      "note_on channel=0 note=30 velocity=85 time=0.10069464583333332\n",
      "note_off channel=0 note=30 velocity=0 time=0.06388901666666666\n",
      "note_off channel=0 note=54 velocity=0 time=0.10000019999999998\n",
      "note_on channel=0 note=54 velocity=88 time=0\n",
      "note_on channel=0 note=42 velocity=88 time=0\n",
      "note_off channel=0 note=54 velocity=0 time=0.014583362499999999\n",
      "note_on channel=0 note=56 velocity=88 time=0.02569449583333333\n",
      "note_off channel=0 note=56 velocity=0 time=0.015277808333333332\n",
      "note_off channel=0 note=42 velocity=0 time=0.009722241666666666\n",
      "note_on channel=0 note=58 velocity=88 time=0.015972254166666665\n",
      "note_off channel=0 note=58 velocity=0 time=0.015277808333333332\n",
      "note_on channel=0 note=63 velocity=88 time=0.02569449583333333\n",
      "note_off channel=0 note=63 velocity=0 time=0.01736114583333333\n",
      "note_on channel=0 note=63 velocity=107 time=0.027083387499999997\n",
      "note_on channel=0 note=75 velocity=121 time=0\n",
      "note_on channel=0 note=28 velocity=89 time=0\n",
      "note_off channel=0 note=28 velocity=0 time=0.07638904166666666\n",
      "note_off channel=0 note=63 velocity=0 time=0.09861130833333331\n",
      "note_off channel=0 note=75 velocity=0 time=0\n",
      "note_on channel=0 note=40 velocity=87 time=0.0013888916666666665\n",
      "note_off channel=0 note=40 velocity=0 time=0.06527790833333333\n",
      "note_on channel=0 note=59 velocity=89 time=0.10000019999999998\n",
      "note_on channel=0 note=28 velocity=85 time=0\n",
      "note_off channel=0 note=59 velocity=0 time=0.06388901666666666\n",
      "note_off channel=0 note=28 velocity=0 time=0\n",
      "note_on channel=0 note=61 velocity=88 time=0.10069464583333332\n",
      "note_on channel=0 note=40 velocity=87 time=0\n",
      "note_off channel=0 note=40 velocity=0 time=0.06527790833333333\n",
      "note_off channel=0 note=61 velocity=0 time=0.0666668\n",
      "note_on channel=0 note=28 velocity=87 time=0.03402784583333333\n",
      "note_off channel=0 note=28 velocity=0 time=0.06597235416666666\n"
     ]
    },
    {
     "name": "stdout",
     "output_type": "stream",
     "text": [
      "note_on channel=0 note=58 velocity=88 time=0.006286875\n",
      "note_on channel=0 note=40 velocity=87 time=0\n",
      "note_off channel=0 note=40 velocity=0 time=0.06426583333333333\n",
      "note_off channel=0 note=58 velocity=0 time=0.05182774999999999\n",
      "note_on channel=0 note=28 velocity=85 time=0.0042147\n",
      "note_off channel=0 note=28 velocity=0 time=0.0646254\n",
      "note_on channel=0 note=56 velocity=80 time=0.0014128083333333334\n",
      "note_on channel=0 note=59 velocity=90 time=0\n",
      "note_on channel=0 note=40 velocity=87 time=0\n",
      "note_off channel=0 note=40 velocity=0 time=0.06640199166666667\n",
      "note_on channel=0 note=28 velocity=89 time=0.0013888916666666665\n",
      "note_off channel=0 note=28 velocity=0 time=0.07638904166666666\n",
      "note_off channel=0 note=56 velocity=0 time=0.08958351249999999\n",
      "note_off channel=0 note=59 velocity=0 time=0.009722241666666666\n",
      "note_on channel=0 note=58 velocity=88 time=0\n",
      "note_on channel=0 note=40 velocity=87 time=0.0006944458333333332\n",
      "note_off channel=0 note=40 velocity=0 time=0.06527790833333333\n",
      "note_off channel=0 note=58 velocity=0 time=0.0645834625\n",
      "note_on channel=0 note=28 velocity=85 time=0.035416737499999996\n",
      "note_off channel=0 note=28 velocity=0 time=0.06388901666666666\n",
      "note_on channel=0 note=56 velocity=88 time=0.10069464583333332\n",
      "note_on channel=0 note=40 velocity=87 time=0\n",
      "note_off channel=0 note=40 velocity=0 time=0.06527790833333333\n",
      "note_off channel=0 note=56 velocity=0 time=0.0666668\n",
      "note_on channel=0 note=28 velocity=87 time=0.03402784583333333\n",
      "note_off channel=0 note=28 velocity=0 time=0.06597235416666666\n",
      "note_on channel=0 note=54 velocity=88 time=0.10000019999999998\n",
      "note_on channel=0 note=40 velocity=87 time=0\n",
      "note_off channel=0 note=40 velocity=0 time=0.06388901666666666\n",
      "note_on channel=0 note=30 velocity=85 time=0.10069464583333332\n",
      "note_off channel=0 note=30 velocity=0 time=0.06388901666666666\n",
      "note_on channel=0 note=42 velocity=88 time=0.10000019999999998\n",
      "note_off channel=0 note=42 velocity=0 time=0.06527790833333333\n",
      "note_off channel=0 note=54 velocity=0 time=0.10000019999999998\n",
      "note_on channel=0 note=63 velocity=85 time=0.0013888916666666665\n",
      "note_on channel=0 note=75 velocity=99 time=0\n",
      "note_on channel=0 note=32 velocity=90 time=0\n",
      "note_off channel=0 note=32 velocity=0 time=0.16597255416666665\n",
      "note_on channel=0 note=39 velocity=87 time=0.010416687499999999\n",
      "note_off channel=0 note=39 velocity=0 time=0.15555586666666665\n",
      "note_off channel=0 note=63 velocity=0 time=0.009722241666666666\n",
      "note_off channel=0 note=75 velocity=0 time=0\n",
      "note_on channel=0 note=59 velocity=81 time=0\n",
      "note_on channel=0 note=71 velocity=95 time=0\n",
      "note_on channel=0 note=44 velocity=89 time=0\n",
      "note_off channel=0 note=59 velocity=0 time=0.15416697499999998\n",
      "note_off channel=0 note=44 velocity=0 time=0\n",
      "note_off channel=0 note=71 velocity=0 time=0.009722241666666666\n",
      "note_on channel=0 note=61 velocity=80 time=0\n",
      "note_on channel=0 note=73 velocity=94 time=0\n",
      "note_on channel=0 note=39 velocity=87 time=0.0006944458333333332\n",
      "note_off channel=0 note=39 velocity=0 time=0.15555586666666665\n",
      "note_on channel=0 note=47 velocity=91 time=0.010416687499999999\n",
      "note_off channel=0 note=47 velocity=0 time=0.15555586666666665\n",
      "note_off channel=0 note=61 velocity=0 time=0.009722241666666666\n",
      "note_off channel=0 note=73 velocity=0 time=0\n",
      "note_on channel=0 note=58 velocity=80 time=0\n",
      "note_on channel=0 note=70 velocity=94 time=0\n",
      "note_on channel=0 note=39 velocity=87 time=0.0006944458333333332\n",
      "note_off channel=0 note=39 velocity=0 time=0.15416697499999998\n",
      "note_on channel=0 note=44 velocity=89 time=0.010416687499999999\n",
      "note_off channel=0 note=44 velocity=0 time=0.15416697499999998\n",
      "note_off channel=0 note=58 velocity=0 time=0.009722241666666666\n",
      "note_off channel=0 note=70 velocity=0 time=0\n",
      "note_on channel=0 note=59 velocity=80 time=0\n",
      "note_on channel=0 note=63 velocity=80 time=0\n",
      "note_on channel=0 note=71 velocity=94 time=0\n",
      "note_on channel=0 note=32 velocity=85 time=0\n",
      "note_off channel=0 note=32 velocity=0 time=0.15486142083333332\n",
      "note_on channel=0 note=39 velocity=92 time=0.011805579166666665\n",
      "note_off channel=0 note=59 velocity=0 time=0.16597255416666665\n",
      "note_off channel=0 note=63 velocity=0 time=0\n",
      "note_off channel=0 note=39 velocity=0 time=0\n",
      "note_off channel=0 note=71 velocity=0 time=0.009722241666666666\n",
      "note_on channel=0 note=56 velocity=80 time=0\n",
      "note_on channel=0 note=68 velocity=94 time=0\n",
      "note_on channel=0 note=44 velocity=88 time=0.0006944458333333332\n",
      "note_off channel=0 note=44 velocity=0 time=0.15555586666666665\n",
      "note_on channel=0 note=39 velocity=88 time=0.009722241666666666\n",
      "note_off channel=0 note=39 velocity=0 time=0.15416697499999998\n",
      "note_off channel=0 note=56 velocity=0 time=0.009722241666666666\n",
      "note_off channel=0 note=68 velocity=0 time=0\n",
      "note_on channel=0 note=58 velocity=80 time=0\n",
      "note_on channel=0 note=70 velocity=94 time=0\n",
      "note_on channel=0 note=47 velocity=88 time=0.0006944458333333332\n",
      "note_off channel=0 note=47 velocity=0 time=0.15555586666666665\n",
      "note_on channel=0 note=39 velocity=90 time=0.010416687499999999\n",
      "note_off channel=0 note=58 velocity=0 time=0.1652781083333333\n",
      "note_off channel=0 note=70 velocity=0 time=0\n",
      "note_on channel=0 note=54 velocity=80 time=0\n",
      "note_on channel=0 note=66 velocity=94 time=0\n",
      "note_off channel=0 note=39 velocity=0 time=0.16458366249999998\n",
      "note_on channel=0 note=44 velocity=89 time=0\n",
      "note_off channel=0 note=44 velocity=0 time=0.15486142083333332\n",
      "note_on channel=0 note=39 velocity=87 time=0.009722241666666666\n",
      "note_off channel=0 note=39 velocity=0 time=0.15486142083333332\n",
      "note_off channel=0 note=54 velocity=0 time=0.010416687499999999\n",
      "note_off channel=0 note=66 velocity=0 time=0\n",
      "note_on channel=0 note=63 velocity=85 time=0.0013888916666666665\n",
      "note_on channel=0 note=68 velocity=85 time=0\n",
      "note_on channel=0 note=75 velocity=99 time=0\n",
      "note_on channel=0 note=28 velocity=89 time=0\n",
      "note_off channel=0 note=28 velocity=0 time=0.16597255416666665\n",
      "note_on channel=0 note=35 velocity=86 time=0.010416687499999999\n",
      "note_off channel=0 note=35 velocity=0 time=0.15555586666666665\n",
      "note_off channel=0 note=63 velocity=0 time=0.009722241666666666\n",
      "note_off channel=0 note=68 velocity=0 time=0\n",
      "note_off channel=0 note=75 velocity=0 time=0\n",
      "note_on channel=0 note=59 velocity=81 time=0\n",
      "note_on channel=0 note=71 velocity=95 time=0\n",
      "note_on channel=0 note=40 velocity=88 time=0\n",
      "note_off channel=0 note=59 velocity=0 time=0.15416697499999998\n",
      "note_off channel=0 note=40 velocity=0 time=0\n",
      "note_off channel=0 note=71 velocity=0 time=0.009722241666666666\n",
      "note_on channel=0 note=61 velocity=80 time=0\n",
      "note_on channel=0 note=73 velocity=94 time=0\n",
      "note_on channel=0 note=44 velocity=88 time=0.0006944458333333332\n",
      "note_off channel=0 note=44 velocity=0 time=0.15555586666666665\n",
      "note_on channel=0 note=47 velocity=91 time=0.010416687499999999\n",
      "note_off channel=0 note=47 velocity=0 time=0.079399575\n",
      "note_off channel=0 note=61 velocity=0 time=0.005588333333333333\n",
      "note_off channel=0 note=73 velocity=0 time=0\n",
      "note_on channel=0 note=58 velocity=80 time=0\n",
      "note_on channel=0 note=70 velocity=94 time=0\n",
      "note_on channel=0 note=52 velocity=88 time=0.0006985416666666666\n",
      "note_off channel=0 note=52 velocity=0 time=0.077741625\n",
      "note_on channel=0 note=47 velocity=89 time=0.0042147\n",
      "note_off channel=0 note=47 velocity=0 time=0.07606484999999999\n",
      "note_off channel=0 note=58 velocity=0 time=0.0014128083333333334\n",
      "note_off channel=0 note=70 velocity=0 time=0\n",
      "note_on channel=0 note=59 velocity=80 time=0\n",
      "note_on channel=0 note=63 velocity=80 time=0\n",
      "note_on channel=0 note=71 velocity=94 time=0\n",
      "note_on channel=0 note=40 velocity=87 time=0\n",
      "note_off channel=0 note=40 velocity=0 time=0.15752812916666667\n",
      "note_on channel=0 note=47 velocity=93 time=0.0013888916666666665\n",
      "note_off channel=0 note=59 velocity=0 time=0.16597255416666665\n",
      "note_off channel=0 note=63 velocity=0 time=0\n",
      "note_off channel=0 note=71 velocity=0 time=0.009722241666666666\n",
      "note_on channel=0 note=58 velocity=80 time=0\n",
      "note_on channel=0 note=70 velocity=94 time=0\n",
      "note_off channel=0 note=47 velocity=0 time=0.16597255416666665\n",
      "note_on channel=0 note=52 velocity=89 time=0\n",
      "note_off channel=0 note=58 velocity=0 time=0.16388921666666664\n",
      "note_off channel=0 note=70 velocity=0 time=0\n",
      "note_on channel=0 note=56 velocity=80 time=0\n",
      "note_on channel=0 note=68 velocity=94 time=0\n",
      "note_off channel=0 note=52 velocity=0 time=0.16597255416666665\n",
      "note_on channel=0 note=52 velocity=91 time=0\n"
     ]
    },
    {
     "name": "stdout",
     "output_type": "stream",
     "text": [
      "note_off channel=0 note=56 velocity=0 time=0.16597255416666665\n",
      "note_off channel=0 note=68 velocity=0 time=0\n",
      "note_on channel=0 note=54 velocity=80 time=0\n",
      "note_on channel=0 note=66 velocity=94 time=0\n",
      "note_off channel=0 note=52 velocity=0 time=0.16458366249999998\n",
      "note_on channel=0 note=44 velocity=89 time=0\n",
      "note_off channel=0 note=44 velocity=0 time=0.15486142083333332\n",
      "note_on channel=0 note=39 velocity=87 time=0.009722241666666666\n",
      "note_off channel=0 note=39 velocity=0 time=0.15486142083333332\n",
      "note_off channel=0 note=54 velocity=0 time=0.010416687499999999\n",
      "note_off channel=0 note=66 velocity=0 time=0\n",
      "note_on channel=0 note=75 velocity=85 time=0.0013888916666666665\n",
      "note_on channel=0 note=80 velocity=85 time=0\n",
      "note_on channel=0 note=87 velocity=99 time=0\n",
      "note_on channel=0 note=32 velocity=90 time=0\n",
      "note_off channel=0 note=32 velocity=0 time=0.16597255416666665\n",
      "note_on channel=0 note=39 velocity=87 time=0.010416687499999999\n",
      "note_off channel=0 note=39 velocity=0 time=0.15555586666666665\n",
      "note_off channel=0 note=75 velocity=0 time=0.009722241666666666\n",
      "note_off channel=0 note=80 velocity=0 time=0\n",
      "note_off channel=0 note=87 velocity=0 time=0\n",
      "note_on channel=0 note=71 velocity=81 time=0\n",
      "note_on channel=0 note=83 velocity=95 time=0\n",
      "note_on channel=0 note=44 velocity=89 time=0\n",
      "note_off channel=0 note=71 velocity=0 time=0.15416697499999998\n",
      "note_off channel=0 note=44 velocity=0 time=0\n",
      "note_off channel=0 note=83 velocity=0 time=0.009722241666666666\n",
      "note_on channel=0 note=73 velocity=80 time=0\n",
      "note_on channel=0 note=85 velocity=94 time=0\n",
      "note_on channel=0 note=39 velocity=87 time=0.0006944458333333332\n",
      "note_off channel=0 note=39 velocity=0 time=0.15555586666666665\n",
      "note_on channel=0 note=47 velocity=91 time=0.010416687499999999\n",
      "note_off channel=0 note=47 velocity=0 time=0.079399575\n",
      "note_off channel=0 note=73 velocity=0 time=0.005588333333333333\n",
      "note_off channel=0 note=85 velocity=0 time=0\n",
      "note_on channel=0 note=70 velocity=80 time=0\n",
      "note_on channel=0 note=82 velocity=94 time=0\n",
      "note_on channel=0 note=39 velocity=87 time=0.0006985416666666666\n",
      "note_off channel=0 note=39 velocity=0 time=0.077741625\n",
      "note_on channel=0 note=44 velocity=89 time=0.0042147\n",
      "note_off channel=0 note=44 velocity=0 time=0.07606484999999999\n",
      "note_off channel=0 note=70 velocity=0 time=0.0014128083333333334\n",
      "note_off channel=0 note=82 velocity=0 time=0\n",
      "note_on channel=0 note=71 velocity=80 time=0\n",
      "note_on channel=0 note=75 velocity=80 time=0\n",
      "note_on channel=0 note=83 velocity=94 time=0\n",
      "note_on channel=0 note=32 velocity=85 time=0\n",
      "note_off channel=0 note=32 velocity=0 time=0.15752812916666667\n",
      "note_on channel=0 note=39 velocity=92 time=0.0013888916666666665\n",
      "note_off channel=0 note=71 velocity=0 time=0.16597255416666665\n",
      "note_off channel=0 note=75 velocity=0 time=0\n",
      "note_off channel=0 note=39 velocity=0 time=0\n",
      "note_off channel=0 note=83 velocity=0 time=0.009722241666666666\n",
      "note_on channel=0 note=68 velocity=80 time=0\n",
      "note_on channel=0 note=80 velocity=94 time=0\n",
      "note_on channel=0 note=44 velocity=88 time=0.0006944458333333332\n",
      "note_off channel=0 note=44 velocity=0 time=0.15555586666666665\n",
      "note_on channel=0 note=39 velocity=88 time=0.009722241666666666\n",
      "note_off channel=0 note=39 velocity=0 time=0.15416697499999998\n",
      "note_off channel=0 note=68 velocity=0 time=0.009722241666666666\n",
      "note_off channel=0 note=80 velocity=0 time=0\n",
      "note_on channel=0 note=70 velocity=80 time=0\n",
      "note_on channel=0 note=82 velocity=94 time=0\n",
      "note_on channel=0 note=47 velocity=88 time=0.0006944458333333332\n",
      "note_off channel=0 note=47 velocity=0 time=0.15555586666666665\n",
      "note_on channel=0 note=39 velocity=90 time=0.010416687499999999\n",
      "note_off channel=0 note=70 velocity=0 time=0.1652781083333333\n",
      "note_off channel=0 note=82 velocity=0 time=0\n",
      "note_on channel=0 note=66 velocity=80 time=0\n",
      "note_on channel=0 note=78 velocity=94 time=0\n",
      "note_off channel=0 note=39 velocity=0 time=0.16458366249999998\n",
      "note_on channel=0 note=44 velocity=89 time=0\n",
      "note_off channel=0 note=44 velocity=0 time=0.15486142083333332\n",
      "note_on channel=0 note=39 velocity=87 time=0.009722241666666666\n",
      "note_off channel=0 note=39 velocity=0 time=0.15486142083333332\n",
      "note_off channel=0 note=66 velocity=0 time=0.010416687499999999\n",
      "note_off channel=0 note=78 velocity=0 time=0\n",
      "note_on channel=0 note=75 velocity=85 time=0.0013888916666666665\n",
      "note_on channel=0 note=80 velocity=85 time=0\n",
      "note_on channel=0 note=87 velocity=99 time=0\n",
      "note_on channel=0 note=28 velocity=89 time=0\n",
      "note_off channel=0 note=28 velocity=0 time=0.16597255416666665\n",
      "note_on channel=0 note=35 velocity=86 time=0.010416687499999999\n",
      "note_off channel=0 note=35 velocity=0 time=0.15555586666666665\n",
      "note_off channel=0 note=75 velocity=0 time=0.009722241666666666\n",
      "note_off channel=0 note=80 velocity=0 time=0\n",
      "note_off channel=0 note=87 velocity=0 time=0\n",
      "note_on channel=0 note=71 velocity=81 time=0\n",
      "note_on channel=0 note=83 velocity=95 time=0\n",
      "note_on channel=0 note=40 velocity=88 time=0\n",
      "note_off channel=0 note=71 velocity=0 time=0.15416697499999998\n",
      "note_off channel=0 note=40 velocity=0 time=0\n",
      "note_off channel=0 note=83 velocity=0 time=0.009722241666666666\n",
      "note_on channel=0 note=73 velocity=80 time=0\n",
      "note_on channel=0 note=85 velocity=94 time=0\n",
      "note_on channel=0 note=47 velocity=88 time=0.0006944458333333332\n",
      "note_off channel=0 note=47 velocity=0 time=0.15555586666666665\n",
      "note_on channel=0 note=52 velocity=91 time=0.010416687499999999\n",
      "note_off channel=0 note=52 velocity=0 time=0.15555586666666665\n",
      "note_off channel=0 note=73 velocity=0 time=0.009722241666666666\n",
      "note_off channel=0 note=85 velocity=0 time=0\n",
      "note_on channel=0 note=70 velocity=80 time=0\n",
      "note_on channel=0 note=82 velocity=94 time=0\n",
      "note_on channel=0 note=47 velocity=88 time=0.0006944458333333332\n",
      "note_off channel=0 note=47 velocity=0 time=0.15416697499999998\n",
      "note_on channel=0 note=40 velocity=88 time=0.010416687499999999\n",
      "note_off channel=0 note=70 velocity=0 time=0.16388921666666664\n",
      "note_off channel=0 note=82 velocity=0 time=0\n",
      "note_on channel=0 note=71 velocity=80 time=0\n",
      "note_on channel=0 note=75 velocity=80 time=0\n",
      "note_on channel=0 note=83 velocity=94 time=0\n",
      "note_off channel=0 note=40 velocity=0 time=0\n",
      "note_on channel=0 note=28 velocity=76 time=0\n",
      "note_on channel=0 note=40 velocity=93 time=0\n",
      "note_off channel=0 note=28 velocity=0 time=0.15486142083333332\n",
      "note_off channel=0 note=40 velocity=0 time=0.010416687499999999\n",
      "note_on channel=0 note=35 velocity=91 time=0.0013888916666666665\n",
      "note_off channel=0 note=71 velocity=0 time=0.16597255416666665\n",
      "note_off channel=0 note=75 velocity=0 time=0\n",
      "note_off channel=0 note=35 velocity=0 time=0\n",
      "note_off channel=0 note=83 velocity=0 time=0.009722241666666666\n",
      "note_on channel=0 note=70 velocity=80 time=0\n",
      "note_on channel=0 note=82 velocity=94 time=0\n",
      "note_on channel=0 note=28 velocity=76 time=0.0006944458333333332\n",
      "note_on channel=0 note=40 velocity=93 time=0\n",
      "note_off channel=0 note=28 velocity=0 time=0.15555586666666665\n",
      "note_off channel=0 note=40 velocity=0 time=0.009722241666666666\n",
      "note_on channel=0 note=35 velocity=87 time=0\n",
      "note_off channel=0 note=35 velocity=0 time=0.15416697499999998\n",
      "note_off channel=0 note=70 velocity=0 time=0.009722241666666666\n",
      "note_off channel=0 note=82 velocity=0 time=0\n",
      "note_on channel=0 note=68 velocity=80 time=0\n",
      "note_on channel=0 note=80 velocity=94 time=0\n",
      "note_on channel=0 note=28 velocity=76 time=0.0006944458333333332\n",
      "note_on channel=0 note=40 velocity=93 time=0\n",
      "note_off channel=0 note=28 velocity=0 time=0.15555586666666665\n",
      "note_off channel=0 note=40 velocity=0 time=0.009722241666666666\n",
      "note_on channel=0 note=34 velocity=89 time=0\n",
      "note_off channel=0 note=34 velocity=0 time=0.1562503125\n",
      "note_off channel=0 note=68 velocity=0 time=0.009722241666666666\n",
      "note_off channel=0 note=80 velocity=0 time=0\n",
      "note_on channel=0 note=67 velocity=80 time=0\n",
      "note_on channel=0 note=70 velocity=80 time=0\n",
      "note_on channel=0 note=79 velocity=94 time=0\n",
      "note_on channel=0 note=27 velocity=75 time=0.0006944458333333332\n",
      "note_on channel=0 note=39 velocity=93 time=0\n",
      "note_off channel=0 note=27 velocity=0 time=0.3284728791666666\n",
      "note_off channel=0 note=39 velocity=0 time=0\n",
      "note_on channel=0 note=51 velocity=88 time=0\n",
      "note_off channel=0 note=51 velocity=0 time=0.15486142083333332\n",
      "note_off channel=0 note=67 velocity=0 time=0.010416687499999999\n",
      "note_off channel=0 note=70 velocity=0 time=0\n",
      "note_off channel=0 note=79 velocity=0 time=0\n",
      "note_on channel=0 note=59 velocity=85 time=0.0013888916666666665\n",
      "note_on channel=0 note=63 velocity=85 time=0\n",
      "note_on channel=0 note=71 velocity=99 time=0\n",
      "note_on channel=0 note=40 velocity=92 time=0\n"
     ]
    },
    {
     "name": "stdout",
     "output_type": "stream",
     "text": [
      "note_off channel=0 note=40 velocity=0 time=0.34166735\n",
      "note_on channel=0 note=47 velocity=89 time=0\n",
      "note_off channel=0 note=59 velocity=0 time=0.16388921666666664\n",
      "note_off channel=0 note=63 velocity=0 time=0\n",
      "note_off channel=0 note=71 velocity=0 time=0\n",
      "note_on channel=0 note=56 velocity=80 time=0\n",
      "note_on channel=0 note=68 velocity=94 time=0\n",
      "note_off channel=0 note=56 velocity=0 time=0.16597255416666665\n",
      "note_off channel=0 note=68 velocity=0 time=0\n",
      "note_on channel=0 note=56 velocity=83 time=0\n",
      "note_on channel=0 note=68 velocity=93 time=0\n",
      "note_off channel=0 note=47 velocity=0 time=0\n",
      "note_on channel=0 note=52 velocity=91 time=0\n",
      "note_off channel=0 note=56 velocity=0 time=0.16597255416666665\n",
      "note_off channel=0 note=68 velocity=0 time=0\n",
      "note_on channel=0 note=56 velocity=80 time=0\n",
      "note_on channel=0 note=68 velocity=94 time=0\n",
      "note_off channel=0 note=56 velocity=0 time=0.15486142083333332\n",
      "note_off channel=0 note=68 velocity=0 time=0.009722241666666666\n",
      "note_on channel=0 note=58 velocity=81 time=0\n",
      "note_on channel=0 note=70 velocity=95 time=0\n",
      "note_off channel=0 note=52 velocity=0 time=0\n",
      "note_on channel=0 note=52 velocity=89 time=0\n",
      "note_off channel=0 note=58 velocity=0 time=0.15486142083333332\n",
      "note_off channel=0 note=70 velocity=0 time=0.009722241666666666\n",
      "note_on channel=0 note=59 velocity=80 time=0\n",
      "note_on channel=0 note=71 velocity=94 time=0\n",
      "note_off channel=0 note=59 velocity=0 time=0.15486142083333332\n",
      "note_off channel=0 note=71 velocity=0 time=0.010416687499999999\n",
      "note_off channel=0 note=52 velocity=0 time=0\n",
      "note_on channel=0 note=58 velocity=85 time=0.0013888916666666665\n",
      "note_on channel=0 note=70 velocity=99 time=0\n",
      "note_on channel=0 note=52 velocity=93 time=0\n",
      "note_off channel=0 note=58 velocity=0 time=0.16597255416666665\n",
      "note_off channel=0 note=70 velocity=0 time=0.009722241666666666\n",
      "note_on channel=0 note=56 velocity=80 time=0\n",
      "note_on channel=0 note=68 velocity=94 time=0\n",
      "note_off channel=0 note=56 velocity=0 time=0.1562503125\n",
      "note_off channel=0 note=68 velocity=0 time=0.009722241666666666\n",
      "note_on channel=0 note=55 velocity=81 time=0\n",
      "note_on channel=0 note=67 velocity=95 time=0\n",
      "note_off channel=0 note=52 velocity=0 time=0\n",
      "note_on channel=0 note=27 velocity=76 time=0\n",
      "note_on channel=0 note=39 velocity=94 time=0\n",
      "note_off channel=0 note=27 velocity=0 time=0.3298617708333333\n",
      "note_off channel=0 note=39 velocity=0 time=0\n",
      "note_on channel=0 note=46 velocity=91 time=0\n",
      "note_off channel=0 note=46 velocity=0 time=0.1562503125\n",
      "note_on channel=0 note=51 velocity=88 time=0.010416687499999999\n",
      "note_off channel=0 note=55 velocity=0 time=0.16388921666666664\n",
      "note_off channel=0 note=67 velocity=0 time=0\n",
      "note_on channel=0 note=55 velocity=89 time=0\n",
      "note_off channel=0 note=55 velocity=0 time=0.24513937916666664\n",
      "note_on channel=0 note=59 velocity=88 time=0\n",
      "note_off channel=0 note=59 velocity=0 time=0.08472239166666666\n",
      "note_off channel=0 note=51 velocity=0 time=0\n",
      "note_on channel=0 note=59 velocity=85 time=0.0013888916666666665\n",
      "note_on channel=0 note=68 velocity=99 time=0\n",
      "note_on channel=0 note=32 velocity=82 time=0\n",
      "note_on channel=0 note=44 velocity=99 time=0\n",
      "note_off channel=0 note=59 velocity=0 time=0.34166735\n",
      "note_off channel=0 note=68 velocity=0 time=0\n",
      "note_on channel=0 note=56 velocity=89 time=0\n",
      "note_off channel=0 note=32 velocity=0 time=0\n",
      "note_off channel=0 note=44 velocity=0 time=0\n",
      "note_on channel=0 note=44 velocity=89 time=0\n",
      "note_off channel=0 note=56 velocity=0 time=0.24513937916666664\n",
      "note_on channel=0 note=61 velocity=88 time=0\n",
      "note_off channel=0 note=61 velocity=0 time=0.07986127083333332\n",
      "note_off channel=0 note=44 velocity=0 time=0.004861120833333333\n",
      "note_on channel=0 note=33 velocity=80 time=0\n",
      "note_on channel=0 note=45 velocity=97 time=0\n",
      "note_on channel=0 note=58 velocity=83 time=0.0006944458333333332\n",
      "note_on channel=0 note=70 velocity=97 time=0\n",
      "note_off channel=0 note=58 velocity=0 time=0.0035122499999999997\n",
      "note_off channel=0 note=70 velocity=0 time=0\n",
      "note_on channel=0 note=58 velocity=89 time=0\n",
      "note_off channel=0 note=33 velocity=0 time=0\n",
      "note_off channel=0 note=45 velocity=0 time=0\n",
      "note_on channel=0 note=54 velocity=89 time=0\n",
      "note_off channel=0 note=58 velocity=0 time=0.08335569166666666\n",
      "note_on channel=0 note=63 velocity=88 time=0\n",
      "note_off channel=0 note=63 velocity=0 time=0\n",
      "note_off channel=0 note=54 velocity=0 time=0\n",
      "note_on channel=0 note=63 velocity=85 time=0.0013888916666666665\n",
      "note_on channel=0 note=71 velocity=99 time=0\n",
      "note_on channel=0 note=35 velocity=83 time=0\n",
      "note_on channel=0 note=47 velocity=99 time=0\n",
      "note_off channel=0 note=63 velocity=0 time=0.34166735\n",
      "note_off channel=0 note=71 velocity=0 time=0\n",
      "note_on channel=0 note=59 velocity=89 time=0\n",
      "note_off channel=0 note=59 velocity=0 time=0.24513937916666664\n",
      "note_on channel=0 note=63 velocity=88 time=0\n",
      "note_off channel=0 note=63 velocity=0 time=0.08472239166666666\n",
      "note_on channel=0 note=63 velocity=83 time=0\n",
      "note_on channel=0 note=72 velocity=97 time=0\n",
      "note_off channel=0 note=35 velocity=0 time=0\n",
      "note_off channel=0 note=47 velocity=0 time=0\n",
      "note_on channel=0 note=36 velocity=81 time=0\n",
      "note_on channel=0 note=48 velocity=97 time=0\n",
      "note_off channel=0 note=63 velocity=0 time=0.3305562166666666\n",
      "note_off channel=0 note=72 velocity=0 time=0\n",
      "note_on channel=0 note=60 velocity=88 time=0.08402794583333333\n",
      "note_off channel=0 note=60 velocity=0 time=0.07569459583333332\n",
      "note_on channel=0 note=61 velocity=80 time=0.004861120833333333\n",
      "note_on channel=0 note=73 velocity=90 time=0\n",
      "note_off channel=0 note=36 velocity=0 time=0\n",
      "note_off channel=0 note=48 velocity=0 time=0\n",
      "note_on channel=0 note=37 velocity=79 time=0\n",
      "note_on channel=0 note=49 velocity=94 time=0\n",
      "note_off channel=0 note=61 velocity=0 time=0.3423617958333333\n",
      "note_off channel=0 note=73 velocity=0 time=0\n",
      "note_on channel=0 note=61 velocity=80 time=0\n",
      "note_on channel=0 note=73 velocity=90 time=0\n",
      "note_off channel=0 note=61 velocity=0 time=0.16597255416666665\n",
      "note_off channel=0 note=73 velocity=0 time=0\n",
      "note_on channel=0 note=61 velocity=81 time=0\n",
      "note_on channel=0 note=73 velocity=91 time=0\n",
      "note_off channel=0 note=61 velocity=0 time=0.16388921666666664\n",
      "note_off channel=0 note=73 velocity=0 time=0\n",
      "note_on channel=0 note=61 velocity=80 time=0\n",
      "note_on channel=0 note=73 velocity=94 time=0\n",
      "note_off channel=0 note=61 velocity=0 time=0.1562503125\n",
      "note_off channel=0 note=73 velocity=0 time=0.009722241666666666\n",
      "note_on channel=0 note=56 velocity=83 time=0\n",
      "note_on channel=0 note=68 velocity=97 time=0\n",
      "note_off channel=0 note=37 velocity=0 time=0\n",
      "note_off channel=0 note=49 velocity=0 time=0\n",
      "note_on channel=0 note=49 velocity=91 time=0\n",
      "note_off channel=0 note=56 velocity=0 time=0.3305562166666666\n",
      "note_off channel=0 note=68 velocity=0 time=0\n",
      "note_on channel=0 note=61 velocity=81 time=0\n",
      "note_on channel=0 note=73 velocity=95 time=0\n",
      "note_off channel=0 note=49 velocity=0 time=0\n",
      "note_on channel=0 note=49 velocity=89 time=0\n",
      "note_off channel=0 note=61 velocity=0 time=0.3298617708333333\n",
      "note_off channel=0 note=73 velocity=0 time=0\n",
      "note_off channel=0 note=49 velocity=0 time=0\n",
      "note_on channel=0 note=59 velocity=85 time=0.0013888916666666665\n",
      "note_on channel=0 note=63 velocity=85 time=0\n",
      "note_on channel=0 note=71 velocity=99 time=0\n",
      "note_on channel=0 note=32 velocity=82 time=0\n",
      "note_on channel=0 note=44 velocity=99 time=0\n",
      "note_off channel=0 note=59 velocity=0 time=0.1756947958333333\n",
      "note_off channel=0 note=63 velocity=0 time=0\n",
      "note_off channel=0 note=71 velocity=0 time=0\n",
      "note_on channel=0 note=59 velocity=80 time=0\n",
      "note_on channel=0 note=63 velocity=80 time=0\n",
      "note_on channel=0 note=71 velocity=90 time=0\n",
      "note_off channel=0 note=59 velocity=0 time=0.16597255416666665\n",
      "note_off channel=0 note=63 velocity=0 time=0\n",
      "note_off channel=0 note=71 velocity=0 time=0\n",
      "note_on channel=0 note=59 velocity=81 time=0\n",
      "note_on channel=0 note=63 velocity=81 time=0\n",
      "note_on channel=0 note=71 velocity=95 time=0\n",
      "note_off channel=0 note=59 velocity=0 time=0.15416697499999998\n",
      "note_off channel=0 note=63 velocity=0 time=0\n",
      "note_off channel=0 note=71 velocity=0 time=0.009722241666666666\n",
      "note_on channel=0 note=56 velocity=80 time=0\n",
      "note_on channel=0 note=68 velocity=94 time=0\n",
      "note_off channel=0 note=32 velocity=0 time=0\n",
      "note_off channel=0 note=44 velocity=0 time=0\n",
      "note_on channel=0 note=44 velocity=88 time=0\n",
      "note_off channel=0 note=56 velocity=0 time=0.3319451083333333\n",
      "note_off channel=0 note=68 velocity=0 time=0\n",
      "note_on channel=0 note=59 velocity=80 time=0\n",
      "note_on channel=0 note=71 velocity=94 time=0\n",
      "note_off channel=0 note=44 velocity=0 time=0\n",
      "note_on channel=0 note=44 velocity=88 time=0\n"
     ]
    },
    {
     "name": "stdout",
     "output_type": "stream",
     "text": [
      "note_off channel=0 note=59 velocity=0 time=0.32916732499999996\n",
      "note_off channel=0 note=71 velocity=0 time=0\n",
      "note_on channel=0 note=61 velocity=80 time=0\n",
      "note_on channel=0 note=73 velocity=94 time=0\n",
      "note_off channel=0 note=44 velocity=0 time=0\n",
      "note_on channel=0 note=33 velocity=77 time=0\n",
      "note_on channel=0 note=45 velocity=90 time=0\n",
      "note_off channel=0 note=61 velocity=0 time=0.3423617958333333\n",
      "note_off channel=0 note=73 velocity=0 time=0\n",
      "note_on channel=0 note=61 velocity=80 time=0\n",
      "note_on channel=0 note=73 velocity=90 time=0\n",
      "note_off channel=0 note=61 velocity=0 time=0.16597255416666665\n",
      "note_off channel=0 note=73 velocity=0 time=0\n",
      "note_on channel=0 note=61 velocity=81 time=0\n",
      "note_on channel=0 note=73 velocity=91 time=0\n",
      "note_off channel=0 note=61 velocity=0 time=0.16388921666666664\n",
      "note_off channel=0 note=73 velocity=0 time=0\n",
      "note_on channel=0 note=61 velocity=80 time=0\n",
      "note_on channel=0 note=73 velocity=94 time=0\n",
      "note_off channel=0 note=61 velocity=0 time=0.1562503125\n",
      "note_off channel=0 note=73 velocity=0 time=0.009722241666666666\n",
      "note_on channel=0 note=56 velocity=83 time=0\n",
      "note_on channel=0 note=68 velocity=97 time=0\n",
      "note_off channel=0 note=33 velocity=0 time=0\n",
      "note_off channel=0 note=45 velocity=0 time=0\n",
      "note_on channel=0 note=45 velocity=91 time=0\n",
      "note_off channel=0 note=56 velocity=0 time=0.3305562166666666\n",
      "note_off channel=0 note=68 velocity=0 time=0\n",
      "note_on channel=0 note=61 velocity=81 time=0\n",
      "note_on channel=0 note=73 velocity=95 time=0\n",
      "note_off channel=0 note=45 velocity=0 time=0\n",
      "note_on channel=0 note=45 velocity=89 time=0\n",
      "note_off channel=0 note=61 velocity=0 time=0.3298617708333333\n",
      "note_off channel=0 note=73 velocity=0 time=0\n",
      "note_off channel=0 note=45 velocity=0 time=0\n",
      "note_on channel=0 note=61 velocity=85 time=0.0013888916666666665\n",
      "note_on channel=0 note=73 velocity=99 time=0\n",
      "note_on channel=0 note=35 velocity=83 time=0\n",
      "note_on channel=0 note=47 velocity=99 time=0\n",
      "note_off channel=0 note=35 velocity=0 time=0.34166735\n",
      "note_off channel=0 note=47 velocity=0 time=0\n",
      "note_on channel=0 note=55 velocity=89 time=0\n",
      "note_off channel=0 note=61 velocity=0 time=0.16388921666666664\n",
      "note_off channel=0 note=73 velocity=0 time=0\n",
      "note_on channel=0 note=60 velocity=80 time=0\n",
      "note_on channel=0 note=72 velocity=94 time=0\n",
      "note_off channel=0 note=60 velocity=0 time=0.16597255416666665\n",
      "note_off channel=0 note=72 velocity=0 time=0\n",
      "note_on channel=0 note=60 velocity=83 time=0\n",
      "note_on channel=0 note=63 velocity=83 time=0\n",
      "note_on channel=0 note=72 velocity=97 time=0\n",
      "note_off channel=0 note=55 velocity=0 time=0\n",
      "note_on channel=0 note=36 velocity=81 time=0\n",
      "note_on channel=0 note=48 velocity=97 time=0\n",
      "note_off channel=0 note=36 velocity=0 time=0.0035122499999999997\n",
      "note_off channel=0 note=48 velocity=0 time=0\n",
      "note_on channel=0 note=57 velocity=89 time=0\n",
      "note_off channel=0 note=60 velocity=0 time=0\n",
      "note_off channel=0 note=63 velocity=0 time=0\n",
      "note_off channel=0 note=72 velocity=0 time=0\n",
      "note_off channel=0 note=57 velocity=0 time=0\n",
      "note_on channel=0 note=61 velocity=107 time=0.0013888916666666665\n",
      "note_on channel=0 note=73 velocity=121 time=0\n",
      "note_on channel=0 note=37 velocity=106 time=0\n",
      "note_on channel=0 note=49 velocity=121 time=0\n",
      "note_off channel=0 note=37 velocity=0 time=0.16597255416666665\n",
      "note_off channel=0 note=61 velocity=0 time=0.009722241666666666\n",
      "note_off channel=0 note=73 velocity=0 time=0\n",
      "note_on channel=0 note=61 velocity=80 time=0\n",
      "note_on channel=0 note=73 velocity=94 time=0\n",
      "note_off channel=0 note=49 velocity=0 time=0\n",
      "note_on channel=0 note=44 velocity=88 time=0\n",
      "note_off channel=0 note=61 velocity=0 time=0.1562503125\n",
      "note_off channel=0 note=44 velocity=0 time=0\n",
      "note_off channel=0 note=73 velocity=0 time=0.009722241666666666\n",
      "note_on channel=0 note=64 velocity=81 time=0\n",
      "note_on channel=0 note=76 velocity=95 time=0\n",
      "note_on channel=0 note=37 velocity=80 time=0\n",
      "note_on channel=0 note=49 velocity=95 time=0\n",
      "note_off channel=0 note=64 velocity=0 time=0.15416697499999998\n",
      "note_off channel=0 note=37 velocity=0 time=0\n",
      "note_off channel=0 note=76 velocity=0 time=0.009722241666666666\n",
      "note_on channel=0 note=63 velocity=80 time=0\n",
      "note_on channel=0 note=75 velocity=94 time=0\n",
      "note_off channel=0 note=49 velocity=0 time=0\n",
      "note_on channel=0 note=44 velocity=88 time=0\n",
      "note_off channel=0 note=44 velocity=0 time=0.1562503125\n",
      "note_on channel=0 note=52 velocity=91 time=0.010416687499999999\n",
      "note_off channel=0 note=52 velocity=0 time=0.15555586666666665\n",
      "note_off channel=0 note=63 velocity=0 time=0.009722241666666666\n",
      "note_off channel=0 note=75 velocity=0 time=0\n",
      "note_on channel=0 note=59 velocity=80 time=0\n",
      "note_on channel=0 note=71 velocity=94 time=0\n",
      "note_on channel=0 note=44 velocity=88 time=0.0006944458333333332\n",
      "note_off channel=0 note=44 velocity=0 time=0.15416697499999998\n",
      "note_off channel=0 note=59 velocity=0 time=0.009722241666666666\n",
      "note_off channel=0 note=71 velocity=0 time=0\n",
      "note_on channel=0 note=59 velocity=81 time=0\n",
      "note_on channel=0 note=71 velocity=95 time=0\n",
      "note_on channel=0 note=49 velocity=89 time=0.0006944458333333332\n",
      "note_off channel=0 note=59 velocity=0 time=0.15416697499999998\n",
      "note_off channel=0 note=49 velocity=0 time=0\n",
      "note_off channel=0 note=71 velocity=0 time=0.009722241666666666\n",
      "note_on channel=0 note=61 velocity=80 time=0\n",
      "note_on channel=0 note=73 velocity=94 time=0\n",
      "note_on channel=0 note=33 velocity=85 time=0\n",
      "note_off channel=0 note=33 velocity=0 time=0.15486142083333332\n",
      "note_on channel=0 note=40 velocity=92 time=0.011805579166666665\n",
      "note_off channel=0 note=40 velocity=0 time=0.16597255416666665\n",
      "note_off channel=0 note=61 velocity=0 time=0.009722241666666666\n",
      "note_off channel=0 note=73 velocity=0 time=0\n",
      "note_on channel=0 note=61 velocity=80 time=0\n",
      "note_on channel=0 note=73 velocity=94 time=0\n",
      "note_on channel=0 note=45 velocity=88 time=0.0006944458333333332\n",
      "note_off channel=0 note=61 velocity=0 time=0.15555586666666665\n",
      "note_off channel=0 note=45 velocity=0 time=0\n",
      "note_off channel=0 note=73 velocity=0 time=0.009722241666666666\n",
      "note_on channel=0 note=64 velocity=81 time=0\n",
      "note_on channel=0 note=76 velocity=95 time=0\n",
      "note_on channel=0 note=40 velocity=88 time=0\n",
      "note_off channel=0 note=64 velocity=0 time=0.15416697499999998\n",
      "note_off channel=0 note=40 velocity=0 time=0\n",
      "note_off channel=0 note=76 velocity=0 time=0.009722241666666666\n",
      "note_on channel=0 note=63 velocity=80 time=0\n",
      "note_on channel=0 note=75 velocity=94 time=0\n",
      "note_on channel=0 note=49 velocity=88 time=0.0006944458333333332\n",
      "note_off channel=0 note=49 velocity=0 time=0.15555586666666665\n",
      "note_on channel=0 note=45 velocity=91 time=0.010416687499999999\n",
      "note_off channel=0 note=45 velocity=0 time=0.15555586666666665\n",
      "note_off channel=0 note=63 velocity=0 time=0.009722241666666666\n",
      "note_off channel=0 note=75 velocity=0 time=0\n",
      "note_on channel=0 note=59 velocity=80 time=0\n",
      "note_on channel=0 note=71 velocity=94 time=0\n",
      "note_on channel=0 note=40 velocity=87 time=0.0006944458333333332\n",
      "note_off channel=0 note=40 velocity=0 time=0.15416697499999998\n",
      "note_on channel=0 note=45 velocity=89 time=0.010416687499999999\n",
      "note_off channel=0 note=45 velocity=0 time=0.15416697499999998\n",
      "note_on channel=0 note=42 velocity=88 time=0.009722241666666666\n",
      "note_off channel=0 note=42 velocity=0 time=0.15486142083333332\n",
      "note_off channel=0 note=59 velocity=0 time=0.010416687499999999\n",
      "note_off channel=0 note=71 velocity=0 time=0\n",
      "note_on channel=0 note=61 velocity=107 time=0.0013888916666666665\n",
      "note_on channel=0 note=73 velocity=121 time=0\n",
      "note_on channel=0 note=35 velocity=113 time=0\n",
      "note_off channel=0 note=35 velocity=0 time=0.16597255416666665\n",
      "note_off channel=0 note=61 velocity=0 time=0.009722241666666666\n",
      "note_off channel=0 note=73 velocity=0 time=0\n",
      "note_on channel=0 note=61 velocity=80 time=0\n",
      "note_on channel=0 note=73 velocity=94 time=0\n",
      "note_on channel=0 note=42 velocity=88 time=0.0006944458333333332\n",
      "note_off channel=0 note=61 velocity=0 time=0.15555586666666665\n",
      "note_off channel=0 note=42 velocity=0 time=0\n",
      "note_off channel=0 note=73 velocity=0 time=0.009722241666666666\n",
      "note_on channel=0 note=64 velocity=81 time=0\n",
      "note_on channel=0 note=76 velocity=95 time=0\n",
      "note_on channel=0 note=47 velocity=89 time=0\n",
      "note_off channel=0 note=64 velocity=0 time=0.15416697499999998\n",
      "note_off channel=0 note=47 velocity=0 time=0\n",
      "note_off channel=0 note=76 velocity=0 time=0.009722241666666666\n",
      "note_on channel=0 note=63 velocity=80 time=0\n",
      "note_on channel=0 note=75 velocity=94 time=0\n",
      "note_on channel=0 note=42 velocity=88 time=0.0006944458333333332\n"
     ]
    },
    {
     "name": "stdout",
     "output_type": "stream",
     "text": [
      "note_off channel=0 note=42 velocity=0 time=0.15555586666666665\n",
      "note_on channel=0 note=52 velocity=91 time=0.010416687499999999\n",
      "note_off channel=0 note=52 velocity=0 time=0.15555586666666665\n",
      "note_off channel=0 note=63 velocity=0 time=0.009722241666666666\n",
      "note_off channel=0 note=75 velocity=0 time=0\n",
      "note_on channel=0 note=59 velocity=80 time=0\n",
      "note_on channel=0 note=71 velocity=94 time=0\n",
      "note_on channel=0 note=42 velocity=88 time=0.0006944458333333332\n",
      "note_off channel=0 note=42 velocity=0 time=0.15416697499999998\n",
      "note_off channel=0 note=59 velocity=0 time=0.009722241666666666\n",
      "note_off channel=0 note=71 velocity=0 time=0\n",
      "note_on channel=0 note=59 velocity=81 time=0\n",
      "note_on channel=0 note=71 velocity=95 time=0\n",
      "note_on channel=0 note=52 velocity=89 time=0.0006944458333333332\n",
      "note_off channel=0 note=59 velocity=0 time=0.15416697499999998\n",
      "note_off channel=0 note=52 velocity=0 time=0\n",
      "note_off channel=0 note=71 velocity=0 time=0.009722241666666666\n",
      "note_on channel=0 note=56 velocity=80 time=0\n",
      "note_on channel=0 note=68 velocity=94 time=0\n",
      "note_on channel=0 note=40 velocity=87 time=0\n",
      "note_off channel=0 note=40 velocity=0 time=0.15486142083333332\n",
      "note_on channel=0 note=47 velocity=93 time=0.011805579166666665\n",
      "note_off channel=0 note=47 velocity=0 time=0.16597255416666665\n",
      "note_off channel=0 note=56 velocity=0 time=0.009722241666666666\n",
      "note_off channel=0 note=68 velocity=0 time=0\n",
      "note_on channel=0 note=56 velocity=80 time=0\n",
      "note_on channel=0 note=68 velocity=94 time=0\n",
      "note_on channel=0 note=52 velocity=88 time=0.0006944458333333332\n",
      "note_off channel=0 note=56 velocity=0 time=0.15555586666666665\n",
      "note_off channel=0 note=52 velocity=0 time=0\n",
      "note_off channel=0 note=68 velocity=0 time=0.009722241666666666\n",
      "note_on channel=0 note=59 velocity=81 time=0\n",
      "note_on channel=0 note=71 velocity=95 time=0\n",
      "note_on channel=0 note=47 velocity=89 time=0\n",
      "note_off channel=0 note=59 velocity=0 time=0.15416697499999998\n",
      "note_off channel=0 note=47 velocity=0 time=0\n",
      "note_off channel=0 note=71 velocity=0 time=0.009722241666666666\n",
      "note_on channel=0 note=56 velocity=80 time=0\n",
      "note_on channel=0 note=68 velocity=94 time=0\n",
      "note_on channel=0 note=39 velocity=87 time=0.0006944458333333332\n",
      "note_off channel=0 note=39 velocity=0 time=0.15555586666666665\n",
      "note_on channel=0 note=51 velocity=91 time=0.010416687499999999\n",
      "note_off channel=0 note=56 velocity=0 time=0.005588333333333333\n",
      "note_off channel=0 note=68 velocity=0 time=0\n",
      "note_on channel=0 note=59 velocity=80 time=0\n",
      "note_on channel=0 note=66 velocity=80 time=0\n",
      "note_on channel=0 note=71 velocity=94 time=0\n",
      "note_off channel=0 note=51 velocity=0 time=0.0035122499999999997\n",
      "note_on channel=0 note=51 velocity=89 time=0\n",
      "note_off channel=0 note=51 velocity=0 time=0.07606484999999999\n",
      "note_on channel=0 note=46 velocity=88 time=0.0014128083333333334\n",
      "note_off channel=0 note=46 velocity=0 time=0.15752812916666667\n",
      "note_off channel=0 note=59 velocity=0 time=0\n",
      "note_off channel=0 note=66 velocity=0 time=0\n",
      "note_off channel=0 note=71 velocity=0 time=0\n",
      "note_on channel=0 note=61 velocity=107 time=0.0013888916666666665\n",
      "note_on channel=0 note=66 velocity=107 time=0\n",
      "note_on channel=0 note=73 velocity=121 time=0\n",
      "note_on channel=0 note=37 velocity=114 time=0\n",
      "note_off channel=0 note=66 velocity=0 time=0.16597255416666665\n",
      "note_off channel=0 note=37 velocity=0 time=0\n",
      "note_off channel=0 note=61 velocity=0 time=0.009722241666666666\n",
      "note_off channel=0 note=73 velocity=0 time=0\n",
      "note_on channel=0 note=61 velocity=80 time=0\n",
      "note_on channel=0 note=73 velocity=94 time=0\n",
      "note_on channel=0 note=44 velocity=88 time=0.0006944458333333332\n",
      "note_off channel=0 note=61 velocity=0 time=0.15555586666666665\n",
      "note_off channel=0 note=44 velocity=0 time=0\n",
      "note_off channel=0 note=73 velocity=0 time=0.009722241666666666\n",
      "note_on channel=0 note=64 velocity=81 time=0\n",
      "note_on channel=0 note=76 velocity=95 time=0\n",
      "note_on channel=0 note=49 velocity=89 time=0\n",
      "note_off channel=0 note=64 velocity=0 time=0.15416697499999998\n",
      "note_off channel=0 note=49 velocity=0 time=0\n",
      "note_off channel=0 note=76 velocity=0 time=0.009722241666666666\n",
      "note_on channel=0 note=63 velocity=80 time=0\n",
      "note_on channel=0 note=75 velocity=94 time=0\n",
      "note_on channel=0 note=44 velocity=88 time=0.0006944458333333332\n",
      "note_off channel=0 note=44 velocity=0 time=0.15555586666666665\n",
      "note_on channel=0 note=52 velocity=91 time=0.010416687499999999\n",
      "note_off channel=0 note=52 velocity=0 time=0.15555586666666665\n",
      "note_off channel=0 note=63 velocity=0 time=0.009722241666666666\n",
      "note_off channel=0 note=75 velocity=0 time=0\n",
      "note_on channel=0 note=59 velocity=80 time=0\n",
      "note_on channel=0 note=71 velocity=94 time=0\n",
      "note_on channel=0 note=44 velocity=88 time=0.0006944458333333332\n",
      "note_off channel=0 note=44 velocity=0 time=0.15416697499999998\n",
      "note_off channel=0 note=59 velocity=0 time=0.009722241666666666\n",
      "note_off channel=0 note=71 velocity=0 time=0\n",
      "note_on channel=0 note=59 velocity=81 time=0\n",
      "note_on channel=0 note=71 velocity=95 time=0\n",
      "note_on channel=0 note=49 velocity=89 time=0.0006944458333333332\n",
      "note_off channel=0 note=59 velocity=0 time=0.15416697499999998\n",
      "note_off channel=0 note=49 velocity=0 time=0\n",
      "note_off channel=0 note=71 velocity=0 time=0.009722241666666666\n",
      "note_on channel=0 note=61 velocity=80 time=0\n",
      "note_on channel=0 note=73 velocity=94 time=0\n",
      "note_on channel=0 note=33 velocity=85 time=0\n",
      "note_off channel=0 note=33 velocity=0 time=0.15486142083333332\n",
      "note_on channel=0 note=40 velocity=92 time=0.011805579166666665\n",
      "note_off channel=0 note=40 velocity=0 time=0.16597255416666665\n",
      "note_off channel=0 note=61 velocity=0 time=0.009722241666666666\n",
      "note_off channel=0 note=73 velocity=0 time=0\n",
      "note_on channel=0 note=61 velocity=80 time=0\n",
      "note_on channel=0 note=73 velocity=94 time=0\n",
      "note_on channel=0 note=45 velocity=88 time=0.0006944458333333332\n",
      "note_off channel=0 note=61 velocity=0 time=0.15555586666666665\n",
      "note_off channel=0 note=45 velocity=0 time=0\n",
      "note_off channel=0 note=73 velocity=0 time=0.009722241666666666\n",
      "note_on channel=0 note=64 velocity=81 time=0\n",
      "note_on channel=0 note=76 velocity=95 time=0\n",
      "note_on channel=0 note=40 velocity=88 time=0\n",
      "note_off channel=0 note=64 velocity=0 time=0.15416697499999998\n",
      "note_off channel=0 note=40 velocity=0 time=0\n",
      "note_off channel=0 note=76 velocity=0 time=0.009722241666666666\n",
      "note_on channel=0 note=63 velocity=80 time=0\n",
      "note_on channel=0 note=75 velocity=94 time=0\n",
      "note_on channel=0 note=49 velocity=88 time=0.0006944458333333332\n",
      "note_off channel=0 note=49 velocity=0 time=0.15555586666666665\n",
      "note_on channel=0 note=45 velocity=91 time=0.010416687499999999\n",
      "note_off channel=0 note=45 velocity=0 time=0.15555586666666665\n",
      "note_off channel=0 note=63 velocity=0 time=0.009722241666666666\n",
      "note_off channel=0 note=75 velocity=0 time=0\n",
      "note_on channel=0 note=59 velocity=80 time=0\n",
      "note_on channel=0 note=71 velocity=94 time=0\n",
      "note_on channel=0 note=40 velocity=87 time=0.0006944458333333332\n",
      "note_off channel=0 note=40 velocity=0 time=0.15416697499999998\n",
      "note_on channel=0 note=45 velocity=89 time=0.010416687499999999\n",
      "note_off channel=0 note=45 velocity=0 time=0.15416697499999998\n",
      "note_on channel=0 note=42 velocity=88 time=0.009722241666666666\n",
      "note_off channel=0 note=42 velocity=0 time=0.15486142083333332\n",
      "note_off channel=0 note=59 velocity=0 time=0.010416687499999999\n",
      "note_off channel=0 note=71 velocity=0 time=0\n",
      "note_on channel=0 note=61 velocity=107 time=0.0013888916666666665\n",
      "note_on channel=0 note=66 velocity=107 time=0\n",
      "note_on channel=0 note=73 velocity=121 time=0\n",
      "note_on channel=0 note=35 velocity=113 time=0\n",
      "note_off channel=0 note=66 velocity=0 time=0.16597255416666665\n",
      "note_off channel=0 note=35 velocity=0 time=0\n",
      "note_off channel=0 note=61 velocity=0 time=0.009722241666666666\n",
      "note_off channel=0 note=73 velocity=0 time=0\n",
      "note_on channel=0 note=61 velocity=80 time=0\n",
      "note_on channel=0 note=73 velocity=94 time=0\n",
      "note_on channel=0 note=42 velocity=88 time=0.0006944458333333332\n",
      "note_off channel=0 note=61 velocity=0 time=0.15555586666666665\n",
      "note_off channel=0 note=42 velocity=0 time=0\n",
      "note_off channel=0 note=73 velocity=0 time=0.009722241666666666\n",
      "note_on channel=0 note=64 velocity=81 time=0\n",
      "note_on channel=0 note=76 velocity=95 time=0\n",
      "note_on channel=0 note=47 velocity=89 time=0\n",
      "note_off channel=0 note=64 velocity=0 time=0.15416697499999998\n",
      "note_off channel=0 note=47 velocity=0 time=0\n",
      "note_off channel=0 note=76 velocity=0 time=0.009722241666666666\n",
      "note_on channel=0 note=63 velocity=80 time=0\n",
      "note_on channel=0 note=75 velocity=94 time=0\n",
      "note_on channel=0 note=42 velocity=88 time=0.0006944458333333332\n",
      "note_off channel=0 note=42 velocity=0 time=0.15555586666666665\n",
      "note_on channel=0 note=52 velocity=91 time=0.010416687499999999\n"
     ]
    },
    {
     "name": "stdout",
     "output_type": "stream",
     "text": [
      "note_off channel=0 note=52 velocity=0 time=0.15555586666666665\n",
      "note_off channel=0 note=63 velocity=0 time=0.009722241666666666\n",
      "note_off channel=0 note=75 velocity=0 time=0\n",
      "note_on channel=0 note=59 velocity=80 time=0\n",
      "note_on channel=0 note=71 velocity=94 time=0\n",
      "note_on channel=0 note=42 velocity=88 time=0.0006944458333333332\n",
      "note_off channel=0 note=42 velocity=0 time=0.15416697499999998\n",
      "note_off channel=0 note=59 velocity=0 time=0.009722241666666666\n",
      "note_off channel=0 note=71 velocity=0 time=0\n",
      "note_on channel=0 note=59 velocity=81 time=0\n",
      "note_on channel=0 note=71 velocity=95 time=0\n",
      "note_on channel=0 note=52 velocity=89 time=0.0006944458333333332\n",
      "note_off channel=0 note=59 velocity=0 time=0.15416697499999998\n",
      "note_off channel=0 note=52 velocity=0 time=0\n",
      "note_off channel=0 note=71 velocity=0 time=0.009722241666666666\n",
      "note_on channel=0 note=56 velocity=80 time=0\n",
      "note_on channel=0 note=68 velocity=94 time=0\n",
      "note_on channel=0 note=40 velocity=87 time=0\n",
      "note_off channel=0 note=40 velocity=0 time=0.15486142083333332\n",
      "note_on channel=0 note=47 velocity=93 time=0.011805579166666665\n",
      "note_off channel=0 note=56 velocity=0 time=0.16597255416666665\n",
      "note_off channel=0 note=68 velocity=0 time=0.009722241666666666\n",
      "note_on channel=0 note=68 velocity=80 time=0\n",
      "note_on channel=0 note=80 velocity=94 time=0\n",
      "note_off channel=0 note=47 velocity=0 time=0.16597255416666665\n",
      "note_on channel=0 note=52 velocity=89 time=0\n",
      "note_off channel=0 note=52 velocity=0 time=0.15416697499999998\n",
      "note_on channel=0 note=47 velocity=88 time=0.010416687499999999\n",
      "note_off channel=0 note=47 velocity=0 time=0.15555586666666665\n",
      "note_off channel=0 note=68 velocity=0 time=0.009722241666666666\n",
      "note_off channel=0 note=80 velocity=0 time=0\n",
      "note_on channel=0 note=66 velocity=83 time=0\n",
      "note_on channel=0 note=78 velocity=97 time=0\n",
      "note_on channel=0 note=40 velocity=82 time=0.0006944458333333332\n",
      "note_on channel=0 note=52 velocity=97 time=0\n",
      "note_off channel=0 note=66 velocity=0 time=0.0035122499999999997\n",
      "note_off channel=0 note=78 velocity=0 time=0\n",
      "note_on channel=0 note=72 velocity=81 time=0\n",
      "note_on channel=0 note=84 velocity=95 time=0\n",
      "note_off channel=0 note=40 velocity=0 time=0\n",
      "note_off channel=0 note=52 velocity=0 time=0\n",
      "note_on channel=0 note=27 velocity=76 time=0\n",
      "note_on channel=0 note=39 velocity=94 time=0\n",
      "note_off channel=0 note=72 velocity=0 time=0\n",
      "note_off channel=0 note=84 velocity=0 time=0\n",
      "note_off channel=0 note=27 velocity=0 time=0\n",
      "note_off channel=0 note=39 velocity=0 time=0\n",
      "note_on channel=0 note=73 velocity=107 time=0.0013888916666666665\n",
      "note_on channel=0 note=78 velocity=107 time=0\n",
      "note_on channel=0 note=85 velocity=121 time=0\n",
      "note_on channel=0 note=25 velocity=102 time=0\n",
      "note_on channel=0 note=37 velocity=120 time=0\n",
      "note_off channel=0 note=78 velocity=0 time=0.16597255416666665\n",
      "note_off channel=0 note=25 velocity=0 time=0\n",
      "note_off channel=0 note=73 velocity=0 time=0.009722241666666666\n",
      "note_off channel=0 note=85 velocity=0 time=0\n",
      "note_on channel=0 note=73 velocity=80 time=0\n",
      "note_on channel=0 note=85 velocity=94 time=0\n",
      "note_off channel=0 note=37 velocity=0 time=0\n",
      "note_on channel=0 note=44 velocity=88 time=0\n",
      "note_off channel=0 note=73 velocity=0 time=0.1562503125\n",
      "note_off channel=0 note=44 velocity=0 time=0\n",
      "note_off channel=0 note=85 velocity=0 time=0.009722241666666666\n",
      "note_on channel=0 note=76 velocity=81 time=0\n",
      "note_on channel=0 note=88 velocity=95 time=0\n",
      "note_on channel=0 note=49 velocity=89 time=0\n",
      "note_off channel=0 note=76 velocity=0 time=0.15416697499999998\n",
      "note_off channel=0 note=49 velocity=0 time=0\n",
      "note_off channel=0 note=88 velocity=0 time=0.009722241666666666\n",
      "note_on channel=0 note=75 velocity=80 time=0\n",
      "note_on channel=0 note=87 velocity=94 time=0\n",
      "note_on channel=0 note=44 velocity=88 time=0.0006944458333333332\n",
      "note_off channel=0 note=44 velocity=0 time=0.15555586666666665\n",
      "note_on channel=0 note=52 velocity=91 time=0.010416687499999999\n",
      "note_off channel=0 note=52 velocity=0 time=0.15555586666666665\n",
      "note_off channel=0 note=75 velocity=0 time=0.009722241666666666\n",
      "note_off channel=0 note=87 velocity=0 time=0\n",
      "note_on channel=0 note=71 velocity=80 time=0\n",
      "note_on channel=0 note=83 velocity=94 time=0\n",
      "note_on channel=0 note=44 velocity=88 time=0.0006944458333333332\n",
      "note_off channel=0 note=44 velocity=0 time=0.15416697499999998\n",
      "note_off channel=0 note=71 velocity=0 time=0.009722241666666666\n",
      "note_off channel=0 note=83 velocity=0 time=0\n",
      "note_on channel=0 note=71 velocity=81 time=0\n",
      "note_on channel=0 note=83 velocity=95 time=0\n",
      "note_on channel=0 note=49 velocity=89 time=0.0006944458333333332\n",
      "note_off channel=0 note=71 velocity=0 time=0.15416697499999998\n",
      "note_off channel=0 note=49 velocity=0 time=0\n",
      "note_off channel=0 note=83 velocity=0 time=0.009722241666666666\n",
      "note_on channel=0 note=73 velocity=80 time=0\n",
      "note_on channel=0 note=85 velocity=94 time=0\n",
      "note_on channel=0 note=33 velocity=85 time=0\n",
      "note_off channel=0 note=33 velocity=0 time=0.15486142083333332\n",
      "note_on channel=0 note=40 velocity=92 time=0.011805579166666665\n",
      "note_off channel=0 note=40 velocity=0 time=0.16597255416666665\n",
      "note_off channel=0 note=73 velocity=0 time=0.009722241666666666\n",
      "note_off channel=0 note=85 velocity=0 time=0\n",
      "note_on channel=0 note=73 velocity=80 time=0\n",
      "note_on channel=0 note=85 velocity=94 time=0\n",
      "note_on channel=0 note=45 velocity=88 time=0.0006944458333333332\n",
      "note_off channel=0 note=73 velocity=0 time=0.15555586666666665\n",
      "note_off channel=0 note=45 velocity=0 time=0\n",
      "note_off channel=0 note=85 velocity=0 time=0.009722241666666666\n",
      "note_on channel=0 note=76 velocity=81 time=0\n",
      "note_on channel=0 note=88 velocity=95 time=0\n",
      "note_on channel=0 note=40 velocity=88 time=0\n",
      "note_off channel=0 note=76 velocity=0 time=0.15416697499999998\n",
      "note_off channel=0 note=40 velocity=0 time=0\n",
      "note_off channel=0 note=88 velocity=0 time=0.009722241666666666\n",
      "note_on channel=0 note=75 velocity=80 time=0\n",
      "note_on channel=0 note=87 velocity=94 time=0\n",
      "note_on channel=0 note=49 velocity=88 time=0.0006944458333333332\n",
      "note_off channel=0 note=49 velocity=0 time=0.15555586666666665\n",
      "note_on channel=0 note=45 velocity=91 time=0.010416687499999999\n",
      "note_off channel=0 note=45 velocity=0 time=0.15555586666666665\n",
      "note_off channel=0 note=75 velocity=0 time=0.009722241666666666\n",
      "note_off channel=0 note=87 velocity=0 time=0\n",
      "note_on channel=0 note=71 velocity=80 time=0\n",
      "note_on channel=0 note=83 velocity=94 time=0\n",
      "note_on channel=0 note=40 velocity=87 time=0.0006944458333333332\n",
      "note_off channel=0 note=40 velocity=0 time=0.15416697499999998\n",
      "note_on channel=0 note=45 velocity=89 time=0.010416687499999999\n",
      "note_off channel=0 note=45 velocity=0 time=0.15416697499999998\n",
      "note_on channel=0 note=42 velocity=88 time=0.009722241666666666\n",
      "note_off channel=0 note=42 velocity=0 time=0.15486142083333332\n",
      "note_off channel=0 note=71 velocity=0 time=0.010416687499999999\n",
      "note_off channel=0 note=83 velocity=0 time=0\n",
      "note_on channel=0 note=73 velocity=107 time=0.0013888916666666665\n",
      "note_on channel=0 note=78 velocity=107 time=0\n",
      "note_on channel=0 note=85 velocity=121 time=0\n",
      "note_on channel=0 note=35 velocity=113 time=0\n",
      "note_off channel=0 note=78 velocity=0 time=0.16597255416666665\n",
      "note_off channel=0 note=35 velocity=0 time=0\n",
      "note_off channel=0 note=73 velocity=0 time=0.009722241666666666\n",
      "note_off channel=0 note=85 velocity=0 time=0\n",
      "note_on channel=0 note=73 velocity=80 time=0\n",
      "note_on channel=0 note=85 velocity=94 time=0\n",
      "note_on channel=0 note=42 velocity=88 time=0.0006944458333333332\n",
      "note_off channel=0 note=73 velocity=0 time=0.15555586666666665\n",
      "note_off channel=0 note=42 velocity=0 time=0\n",
      "note_off channel=0 note=85 velocity=0 time=0.009722241666666666\n",
      "note_on channel=0 note=76 velocity=81 time=0\n",
      "note_on channel=0 note=88 velocity=95 time=0\n",
      "note_on channel=0 note=47 velocity=89 time=0\n",
      "note_off channel=0 note=76 velocity=0 time=0.15416697499999998\n",
      "note_off channel=0 note=47 velocity=0 time=0\n",
      "note_off channel=0 note=88 velocity=0 time=0.009722241666666666\n",
      "note_on channel=0 note=75 velocity=80 time=0\n",
      "note_on channel=0 note=87 velocity=94 time=0\n",
      "note_on channel=0 note=42 velocity=88 time=0.0006944458333333332\n",
      "note_off channel=0 note=42 velocity=0 time=0.15555586666666665\n",
      "note_on channel=0 note=52 velocity=91 time=0.010416687499999999\n",
      "note_off channel=0 note=52 velocity=0 time=0.15555586666666665\n",
      "note_off channel=0 note=75 velocity=0 time=0.009722241666666666\n",
      "note_off channel=0 note=87 velocity=0 time=0\n",
      "note_on channel=0 note=71 velocity=80 time=0\n",
      "note_on channel=0 note=83 velocity=94 time=0\n",
      "note_on channel=0 note=42 velocity=88 time=0.0006944458333333332\n",
      "note_off channel=0 note=42 velocity=0 time=0.15416697499999998\n"
     ]
    },
    {
     "name": "stdout",
     "output_type": "stream",
     "text": [
      "note_off channel=0 note=71 velocity=0 time=0.009722241666666666\n",
      "note_off channel=0 note=83 velocity=0 time=0\n",
      "note_on channel=0 note=71 velocity=81 time=0\n",
      "note_on channel=0 note=83 velocity=95 time=0\n",
      "note_on channel=0 note=52 velocity=89 time=0.0006944458333333332\n",
      "note_off channel=0 note=71 velocity=0 time=0.15416697499999998\n",
      "note_off channel=0 note=52 velocity=0 time=0\n",
      "note_off channel=0 note=83 velocity=0 time=0.009722241666666666\n",
      "note_on channel=0 note=68 velocity=80 time=0\n",
      "note_on channel=0 note=80 velocity=94 time=0\n",
      "note_on channel=0 note=40 velocity=87 time=0\n",
      "note_off channel=0 note=40 velocity=0 time=0.15486142083333332\n",
      "note_on channel=0 note=47 velocity=93 time=0.011805579166666665\n",
      "note_off channel=0 note=47 velocity=0 time=0.16597255416666665\n",
      "note_off channel=0 note=68 velocity=0 time=0.009722241666666666\n",
      "note_off channel=0 note=80 velocity=0 time=0\n",
      "note_on channel=0 note=68 velocity=80 time=0\n",
      "note_on channel=0 note=80 velocity=94 time=0\n",
      "note_on channel=0 note=52 velocity=88 time=0.0006944458333333332\n",
      "note_off channel=0 note=68 velocity=0 time=0.15555586666666665\n",
      "note_off channel=0 note=52 velocity=0 time=0\n",
      "note_off channel=0 note=80 velocity=0 time=0.009722241666666666\n",
      "note_on channel=0 note=71 velocity=81 time=0\n",
      "note_on channel=0 note=83 velocity=95 time=0\n",
      "note_on channel=0 note=47 velocity=89 time=0\n",
      "note_off channel=0 note=71 velocity=0 time=0.15416697499999998\n",
      "note_off channel=0 note=47 velocity=0 time=0\n",
      "note_off channel=0 note=83 velocity=0 time=0.009722241666666666\n",
      "note_on channel=0 note=68 velocity=80 time=0\n",
      "note_on channel=0 note=80 velocity=94 time=0\n",
      "note_on channel=0 note=39 velocity=87 time=0.0006944458333333332\n",
      "note_off channel=0 note=39 velocity=0 time=0.15555586666666665\n",
      "note_on channel=0 note=51 velocity=91 time=0.010416687499999999\n",
      "note_off channel=0 note=68 velocity=0 time=0.005588333333333333\n",
      "note_off channel=0 note=80 velocity=0 time=0\n",
      "note_on channel=0 note=71 velocity=80 time=0\n",
      "note_on channel=0 note=78 velocity=80 time=0\n",
      "note_on channel=0 note=83 velocity=94 time=0\n",
      "note_off channel=0 note=51 velocity=0 time=0.0035122499999999997\n",
      "note_on channel=0 note=51 velocity=89 time=0\n",
      "note_off channel=0 note=51 velocity=0 time=0.07606484999999999\n",
      "note_on channel=0 note=46 velocity=88 time=0.0014128083333333334\n",
      "note_off channel=0 note=46 velocity=0 time=0.15752812916666667\n",
      "note_off channel=0 note=71 velocity=0 time=0\n",
      "note_off channel=0 note=78 velocity=0 time=0\n",
      "note_off channel=0 note=83 velocity=0 time=0\n",
      "note_on channel=0 note=73 velocity=107 time=0.0013888916666666665\n",
      "note_on channel=0 note=78 velocity=107 time=0\n",
      "note_on channel=0 note=85 velocity=121 time=0\n",
      "note_on channel=0 note=37 velocity=114 time=0\n",
      "note_off channel=0 note=78 velocity=0 time=0.16597255416666665\n",
      "note_off channel=0 note=37 velocity=0 time=0\n",
      "note_off channel=0 note=73 velocity=0 time=0.009722241666666666\n",
      "note_off channel=0 note=85 velocity=0 time=0\n",
      "note_on channel=0 note=73 velocity=80 time=0\n",
      "note_on channel=0 note=85 velocity=94 time=0\n",
      "note_on channel=0 note=44 velocity=88 time=0.0006944458333333332\n",
      "note_off channel=0 note=73 velocity=0 time=0.15555586666666665\n",
      "note_off channel=0 note=44 velocity=0 time=0\n",
      "note_off channel=0 note=85 velocity=0 time=0.009722241666666666\n",
      "note_on channel=0 note=76 velocity=81 time=0\n",
      "note_on channel=0 note=88 velocity=95 time=0\n",
      "note_on channel=0 note=49 velocity=89 time=0\n",
      "note_off channel=0 note=76 velocity=0 time=0.15416697499999998\n",
      "note_off channel=0 note=49 velocity=0 time=0\n",
      "note_off channel=0 note=88 velocity=0 time=0.009722241666666666\n",
      "note_on channel=0 note=75 velocity=80 time=0\n",
      "note_on channel=0 note=87 velocity=94 time=0\n",
      "note_on channel=0 note=44 velocity=88 time=0.0006944458333333332\n",
      "note_off channel=0 note=44 velocity=0 time=0.15555586666666665\n",
      "note_on channel=0 note=52 velocity=91 time=0.010416687499999999\n",
      "note_off channel=0 note=52 velocity=0 time=0.15555586666666665\n",
      "note_off channel=0 note=75 velocity=0 time=0.009722241666666666\n",
      "note_off channel=0 note=87 velocity=0 time=0\n",
      "note_on channel=0 note=71 velocity=80 time=0\n",
      "note_on channel=0 note=83 velocity=94 time=0\n",
      "note_on channel=0 note=44 velocity=88 time=0.0006944458333333332\n",
      "note_off channel=0 note=44 velocity=0 time=0.15416697499999998\n",
      "note_off channel=0 note=71 velocity=0 time=0.009722241666666666\n",
      "note_off channel=0 note=83 velocity=0 time=0\n",
      "note_on channel=0 note=71 velocity=81 time=0\n",
      "note_on channel=0 note=83 velocity=95 time=0\n",
      "note_on channel=0 note=49 velocity=89 time=0.0006944458333333332\n",
      "note_off channel=0 note=71 velocity=0 time=0.15416697499999998\n",
      "note_off channel=0 note=49 velocity=0 time=0\n",
      "note_off channel=0 note=83 velocity=0 time=0.009722241666666666\n",
      "note_on channel=0 note=73 velocity=80 time=0\n",
      "note_on channel=0 note=85 velocity=94 time=0\n",
      "note_on channel=0 note=33 velocity=85 time=0\n",
      "note_off channel=0 note=33 velocity=0 time=0.15486142083333332\n",
      "note_on channel=0 note=40 velocity=92 time=0.0013888916666666665\n",
      "note_off channel=0 note=40 velocity=0 time=0.16597255416666665\n",
      "note_off channel=0 note=73 velocity=0 time=0.009722241666666666\n",
      "note_off channel=0 note=85 velocity=0 time=0\n",
      "note_on channel=0 note=73 velocity=80 time=0\n",
      "note_on channel=0 note=85 velocity=94 time=0\n",
      "note_on channel=0 note=45 velocity=88 time=0.0006944458333333332\n",
      "note_off channel=0 note=73 velocity=0 time=0.15555586666666665\n",
      "note_off channel=0 note=45 velocity=0 time=0\n",
      "note_off channel=0 note=85 velocity=0 time=0.009722241666666666\n",
      "note_on channel=0 note=76 velocity=81 time=0\n",
      "note_on channel=0 note=88 velocity=95 time=0\n",
      "note_on channel=0 note=40 velocity=88 time=0\n",
      "note_off channel=0 note=76 velocity=0 time=0.15416697499999998\n",
      "note_off channel=0 note=40 velocity=0 time=0\n",
      "note_off channel=0 note=88 velocity=0 time=0.009722241666666666\n",
      "note_on channel=0 note=75 velocity=80 time=0\n",
      "note_on channel=0 note=87 velocity=94 time=0\n",
      "note_on channel=0 note=49 velocity=88 time=0.0006944458333333332\n",
      "note_off channel=0 note=49 velocity=0 time=0.15555586666666665\n",
      "note_on channel=0 note=45 velocity=91 time=0.010416687499999999\n",
      "note_off channel=0 note=45 velocity=0 time=0.15555586666666665\n",
      "note_off channel=0 note=75 velocity=0 time=0.009722241666666666\n",
      "note_off channel=0 note=87 velocity=0 time=0\n",
      "note_on channel=0 note=71 velocity=80 time=0\n",
      "note_on channel=0 note=83 velocity=94 time=0\n",
      "note_on channel=0 note=40 velocity=87 time=0.0006944458333333332\n",
      "note_off channel=0 note=40 velocity=0 time=0.15416697499999998\n",
      "note_on channel=0 note=45 velocity=89 time=0.010416687499999999\n",
      "note_off channel=0 note=45 velocity=0 time=0.15416697499999998\n",
      "note_on channel=0 note=42 velocity=88 time=0.009722241666666666\n",
      "note_off channel=0 note=42 velocity=0 time=0.15486142083333332\n",
      "note_off channel=0 note=71 velocity=0 time=0.010416687499999999\n",
      "note_off channel=0 note=83 velocity=0 time=0\n",
      "note_on channel=0 note=73 velocity=107 time=0.0013888916666666665\n",
      "note_on channel=0 note=85 velocity=121 time=0\n",
      "note_on channel=0 note=35 velocity=105 time=0\n",
      "note_on channel=0 note=47 velocity=121 time=0\n",
      "note_off channel=0 note=73 velocity=0 time=0.1756947958333333\n",
      "note_off channel=0 note=85 velocity=0 time=0\n",
      "note_on channel=0 note=73 velocity=80 time=0\n",
      "note_on channel=0 note=85 velocity=94 time=0\n",
      "note_off channel=0 note=73 velocity=0 time=0.1562503125\n",
      "note_off channel=0 note=85 velocity=0 time=0.009722241666666666\n",
      "note_on channel=0 note=76 velocity=81 time=0\n",
      "note_on channel=0 note=88 velocity=95 time=0\n",
      "note_off channel=0 note=76 velocity=0 time=0.15416697499999998\n",
      "note_off channel=0 note=88 velocity=0 time=0.009722241666666666\n",
      "note_on channel=0 note=75 velocity=80 time=0\n",
      "note_on channel=0 note=87 velocity=94 time=0\n",
      "note_off channel=0 note=35 velocity=0 time=0.16597255416666665\n",
      "note_off channel=0 note=47 velocity=0 time=0\n",
      "note_on channel=0 note=47 velocity=91 time=0\n",
      "note_off channel=0 note=75 velocity=0 time=0.16597255416666665\n",
      "note_off channel=0 note=87 velocity=0 time=0\n",
      "note_on channel=0 note=71 velocity=80 time=0\n",
      "note_on channel=0 note=83 velocity=94 time=0\n",
      "note_off channel=0 note=71 velocity=0 time=0.32916732499999996\n",
      "note_off channel=0 note=83 velocity=0 time=0\n",
      "note_on channel=0 note=73 velocity=102 time=0\n",
      "note_on channel=0 note=78 velocity=102 time=0\n",
      "note_on channel=0 note=85 velocity=116 time=0\n",
      "note_off channel=0 note=47 velocity=0 time=0.1652781083333333\n",
      "note_on channel=0 note=25 velocity=102 time=0.0013888916666666665\n",
      "note_on channel=0 note=37 velocity=120 time=0\n"
     ]
    },
    {
     "name": "stdout",
     "output_type": "stream",
     "text": [
      "note_off channel=0 note=73 velocity=0 time=0.34166735\n",
      "note_off channel=0 note=78 velocity=0 time=0\n",
      "note_off channel=0 note=85 velocity=0 time=0\n",
      "note_on channel=0 note=64 velocity=89 time=0\n",
      "note_off channel=0 note=64 velocity=0 time=0.15416697499999998\n",
      "note_on channel=0 note=66 velocity=88 time=0.010416687499999999\n",
      "note_off channel=0 note=25 velocity=0 time=0.1652781083333333\n",
      "note_off channel=0 note=37 velocity=0 time=0\n",
      "note_on channel=0 note=56 velocity=91 time=0\n",
      "note_off channel=0 note=66 velocity=0 time=0.16597255416666665\n",
      "note_on channel=0 note=63 velocity=88 time=0\n",
      "note_off channel=0 note=56 velocity=0 time=0.16458366249999998\n",
      "note_on channel=0 note=49 velocity=89 time=0\n",
      "note_off channel=0 note=63 velocity=0 time=0.16458366249999998\n",
      "note_on channel=0 note=61 velocity=80 time=0\n",
      "note_on channel=0 note=64 velocity=90 time=0\n",
      "note_off channel=0 note=49 velocity=0 time=0.1652781083333333\n",
      "note_on channel=0 note=56 velocity=93 time=0.0013888916666666665\n",
      "note_off channel=0 note=61 velocity=0 time=0.1756947958333333\n",
      "note_off channel=0 note=64 velocity=0 time=0\n",
      "note_on channel=0 note=61 velocity=88 time=0\n",
      "note_off channel=0 note=56 velocity=0 time=0.16597255416666665\n",
      "note_on channel=0 note=56 velocity=89 time=0\n",
      "note_off channel=0 note=61 velocity=0 time=0.16388921666666664\n",
      "note_on channel=0 note=63 velocity=88 time=0\n",
      "note_off channel=0 note=56 velocity=0 time=0.16597255416666665\n",
      "note_on channel=0 note=56 velocity=91 time=0\n",
      "note_off channel=0 note=63 velocity=0 time=0.005588333333333333\n",
      "note_on channel=0 note=59 velocity=88 time=0\n",
      "note_off channel=0 note=56 velocity=0 time=0.0035122499999999997\n",
      "note_on channel=0 note=56 velocity=89 time=0\n",
      "note_off channel=0 note=56 velocity=0 time=0.07606484999999999\n",
      "note_on channel=0 note=49 velocity=88 time=0.0014128083333333334\n",
      "note_off channel=0 note=49 velocity=0 time=0.15752812916666667\n",
      "note_off channel=0 note=59 velocity=0 time=0\n",
      "note_on channel=0 note=68 velocity=85 time=0.0013888916666666665\n",
      "note_on channel=0 note=73 velocity=85 time=0\n",
      "note_on channel=0 note=80 velocity=99 time=0\n",
      "note_on channel=0 note=45 velocity=93 time=0\n",
      "note_off channel=0 note=45 velocity=0 time=0.16597255416666665\n",
      "note_on channel=0 note=52 velocity=88 time=0.010416687499999999\n",
      "note_off channel=0 note=52 velocity=0 time=0.15555586666666665\n",
      "note_off channel=0 note=68 velocity=0 time=0.009722241666666666\n",
      "note_off channel=0 note=73 velocity=0 time=0\n",
      "note_off channel=0 note=80 velocity=0 time=0\n",
      "note_on channel=0 note=64 velocity=89 time=0\n",
      "note_on channel=0 note=57 velocity=89 time=0\n",
      "note_off channel=0 note=64 velocity=0 time=0.15416697499999998\n",
      "note_off channel=0 note=57 velocity=0 time=0\n",
      "note_on channel=0 note=66 velocity=88 time=0.010416687499999999\n",
      "note_on channel=0 note=52 velocity=88 time=0\n",
      "note_off channel=0 note=52 velocity=0 time=0.15555586666666665\n",
      "note_on channel=0 note=57 velocity=91 time=0.010416687499999999\n",
      "note_off channel=0 note=66 velocity=0 time=0.1652781083333333\n",
      "note_on channel=0 note=63 velocity=88 time=0\n",
      "note_off channel=0 note=57 velocity=0 time=0.16458366249999998\n",
      "note_on channel=0 note=57 velocity=89 time=0\n",
      "note_off channel=0 note=63 velocity=0 time=0.16458366249999998\n",
      "note_on channel=0 note=61 velocity=80 time=0\n",
      "note_on channel=0 note=64 velocity=90 time=0\n",
      "note_off channel=0 note=57 velocity=0 time=0.1652781083333333\n",
      "note_on channel=0 note=45 velocity=93 time=0.0013888916666666665\n",
      "note_off channel=0 note=61 velocity=0 time=0.16597255416666665\n",
      "note_off channel=0 note=64 velocity=0 time=0.009722241666666666\n",
      "note_on channel=0 note=63 velocity=88 time=0\n",
      "note_off channel=0 note=45 velocity=0 time=0.16597255416666665\n",
      "note_on channel=0 note=52 velocity=89 time=0\n",
      "note_off channel=0 note=63 velocity=0 time=0.16388921666666664\n",
      "note_on channel=0 note=61 velocity=88 time=0\n",
      "note_off channel=0 note=52 velocity=0 time=0.16597255416666665\n",
      "note_on channel=0 note=57 velocity=91 time=0\n",
      "note_off channel=0 note=61 velocity=0 time=0.16597255416666665\n",
      "note_on channel=0 note=59 velocity=88 time=0\n",
      "note_off channel=0 note=57 velocity=0 time=0.16458366249999998\n",
      "note_on channel=0 note=54 velocity=89 time=0\n",
      "note_off channel=0 note=54 velocity=0 time=0.15486142083333332\n",
      "note_on channel=0 note=52 velocity=88 time=0.009722241666666666\n",
      "note_off channel=0 note=52 velocity=0 time=0.15486142083333332\n",
      "note_off channel=0 note=59 velocity=0 time=0.010416687499999999\n",
      "note_on channel=0 note=71 velocity=85 time=0.0013888916666666665\n",
      "note_on channel=0 note=76 velocity=85 time=0\n",
      "note_on channel=0 note=83 velocity=99 time=0\n",
      "note_on channel=0 note=40 velocity=92 time=0\n",
      "note_off channel=0 note=40 velocity=0 time=0.16597255416666665\n",
      "note_on channel=0 note=47 velocity=88 time=0.010416687499999999\n",
      "note_off channel=0 note=47 velocity=0 time=0.15555586666666665\n",
      "note_off channel=0 note=71 velocity=0 time=0.009722241666666666\n",
      "note_off channel=0 note=76 velocity=0 time=0\n",
      "note_off channel=0 note=83 velocity=0 time=0\n",
      "note_on channel=0 note=67 velocity=89 time=0\n",
      "note_on channel=0 note=52 velocity=89 time=0\n",
      "note_off channel=0 note=67 velocity=0 time=0.15416697499999998\n",
      "note_off channel=0 note=52 velocity=0 time=0\n",
      "note_on channel=0 note=69 velocity=88 time=0.010416687499999999\n",
      "note_on channel=0 note=47 velocity=88 time=0\n",
      "note_off channel=0 note=47 velocity=0 time=0.15555586666666665\n",
      "note_on channel=0 note=57 velocity=91 time=0.010416687499999999\n",
      "note_off channel=0 note=57 velocity=0 time=0.15555586666666665\n",
      "note_off channel=0 note=69 velocity=0 time=0.009722241666666666\n",
      "note_on channel=0 note=62 velocity=80 time=0\n",
      "note_on channel=0 note=66 velocity=94 time=0\n",
      "note_on channel=0 note=47 velocity=88 time=0.0006944458333333332\n",
      "note_off channel=0 note=47 velocity=0 time=0.15416697499999998\n",
      "note_on channel=0 note=52 velocity=89 time=0.010416687499999999\n",
      "note_off channel=0 note=52 velocity=0 time=0.15416697499999998\n",
      "note_off channel=0 note=62 velocity=0 time=0.009722241666666666\n",
      "note_off channel=0 note=66 velocity=0 time=0\n",
      "note_on channel=0 note=62 velocity=80 time=0\n",
      "note_on channel=0 note=67 velocity=94 time=0\n",
      "note_on channel=0 note=40 velocity=87 time=0\n",
      "note_off channel=0 note=40 velocity=0 time=0.15486142083333332\n",
      "note_on channel=0 note=47 velocity=93 time=0.011805579166666665\n",
      "note_off channel=0 note=62 velocity=0 time=0.1756947958333333\n",
      "note_off channel=0 note=67 velocity=0 time=0\n",
      "note_on channel=0 note=62 velocity=80 time=0\n",
      "note_on channel=0 note=64 velocity=94 time=0\n",
      "note_off channel=0 note=47 velocity=0 time=0.16597255416666665\n",
      "note_on channel=0 note=52 velocity=89 time=0\n",
      "note_off channel=0 note=62 velocity=0 time=0.16388921666666664\n",
      "note_off channel=0 note=64 velocity=0 time=0\n",
      "note_on channel=0 note=62 velocity=80 time=0\n",
      "note_on channel=0 note=66 velocity=94 time=0\n",
      "note_off channel=0 note=52 velocity=0 time=0.16597255416666665\n",
      "note_on channel=0 note=52 velocity=91 time=0\n",
      "note_off channel=0 note=62 velocity=0 time=0.16597255416666665\n",
      "note_off channel=0 note=66 velocity=0 time=0\n",
      "note_on channel=0 note=62 velocity=88 time=0\n",
      "note_off channel=0 note=52 velocity=0 time=0.16458366249999998\n",
      "note_on channel=0 note=50 velocity=89 time=0\n",
      "note_off channel=0 note=50 velocity=0 time=0.15486142083333332\n",
      "note_on channel=0 note=43 velocity=88 time=0.009722241666666666\n",
      "note_off channel=0 note=43 velocity=0 time=0.15486142083333332\n",
      "note_off channel=0 note=62 velocity=0 time=0.010416687499999999\n",
      "note_on channel=0 note=71 velocity=85 time=0.0013888916666666665\n",
      "note_on channel=0 note=76 velocity=85 time=0\n",
      "note_on channel=0 note=83 velocity=99 time=0\n",
      "note_on channel=0 note=36 velocity=91 time=0\n",
      "note_off channel=0 note=36 velocity=0 time=0.16597255416666665\n",
      "note_on channel=0 note=43 velocity=88 time=0.010416687499999999\n",
      "note_off channel=0 note=43 velocity=0 time=0.15555586666666665\n",
      "note_off channel=0 note=71 velocity=0 time=0.009722241666666666\n",
      "note_off channel=0 note=76 velocity=0 time=0\n",
      "note_off channel=0 note=83 velocity=0 time=0\n",
      "note_on channel=0 note=67 velocity=89 time=0\n",
      "note_on channel=0 note=48 velocity=89 time=0\n",
      "note_off channel=0 note=67 velocity=0 time=0.15416697499999998\n",
      "note_off channel=0 note=48 velocity=0 time=0\n",
      "note_on channel=0 note=69 velocity=88 time=0.010416687499999999\n",
      "note_on channel=0 note=55 velocity=88 time=0\n",
      "note_off channel=0 note=55 velocity=0 time=0.15555586666666665\n"
     ]
    },
    {
     "name": "stdout",
     "output_type": "stream",
     "text": [
      "note_on channel=0 note=60 velocity=91 time=0.010416687499999999\n",
      "note_off channel=0 note=69 velocity=0 time=0.1652781083333333\n",
      "note_on channel=0 note=62 velocity=80 time=0\n",
      "note_on channel=0 note=66 velocity=94 time=0\n",
      "note_off channel=0 note=60 velocity=0 time=0.16458366249999998\n",
      "note_on channel=0 note=60 velocity=89 time=0\n",
      "note_off channel=0 note=62 velocity=0 time=0.16458366249999998\n",
      "note_off channel=0 note=66 velocity=0 time=0\n",
      "note_on channel=0 note=62 velocity=80 time=0\n",
      "note_on channel=0 note=67 velocity=94 time=0\n",
      "note_off channel=0 note=60 velocity=0 time=0.1652781083333333\n",
      "note_on channel=0 note=36 velocity=91 time=0.0013888916666666665\n",
      "note_off channel=0 note=62 velocity=0 time=0.1756947958333333\n",
      "note_off channel=0 note=67 velocity=0 time=0\n",
      "note_on channel=0 note=62 velocity=80 time=0\n",
      "note_on channel=0 note=66 velocity=94 time=0\n",
      "note_off channel=0 note=36 velocity=0 time=0.16597255416666665\n",
      "note_on channel=0 note=48 velocity=89 time=0\n",
      "note_off channel=0 note=62 velocity=0 time=0.16388921666666664\n",
      "note_off channel=0 note=66 velocity=0 time=0\n",
      "note_on channel=0 note=62 velocity=80 time=0\n",
      "note_on channel=0 note=64 velocity=94 time=0\n",
      "note_off channel=0 note=48 velocity=0 time=0.16597255416666665\n",
      "note_on channel=0 note=48 velocity=91 time=0\n",
      "note_off channel=0 note=62 velocity=0 time=0.16597255416666665\n",
      "note_off channel=0 note=64 velocity=0 time=0\n",
      "note_on channel=0 note=63 velocity=88 time=0\n",
      "note_off channel=0 note=48 velocity=0 time=0.16458366249999998\n",
      "note_on channel=0 note=49 velocity=89 time=0\n",
      "note_off channel=0 note=49 velocity=0 time=0.15486142083333332\n",
      "note_on channel=0 note=44 velocity=88 time=0.009722241666666666\n",
      "note_off channel=0 note=44 velocity=0 time=0.15486142083333332\n",
      "note_off channel=0 note=63 velocity=0 time=0.010416687499999999\n",
      "note_on channel=0 note=71 velocity=85 time=0.0013888916666666665\n",
      "note_on channel=0 note=76 velocity=85 time=0\n",
      "note_on channel=0 note=83 velocity=99 time=0\n",
      "note_on channel=0 note=40 velocity=84 time=0\n",
      "note_on channel=0 note=52 velocity=99 time=0\n",
      "note_off channel=0 note=40 velocity=0 time=0.16597255416666665\n",
      "note_off channel=0 note=52 velocity=0 time=0.009722241666666666\n",
      "note_on channel=0 note=47 velocity=88 time=0\n",
      "note_off channel=0 note=47 velocity=0 time=0.1562503125\n",
      "note_off channel=0 note=71 velocity=0 time=0.009722241666666666\n",
      "note_off channel=0 note=76 velocity=0 time=0\n",
      "note_off channel=0 note=83 velocity=0 time=0\n",
      "note_on channel=0 note=67 velocity=81 time=0\n",
      "note_on channel=0 note=79 velocity=95 time=0\n",
      "note_on channel=0 note=40 velocity=80 time=0\n",
      "note_on channel=0 note=52 velocity=91 time=0\n",
      "note_off channel=0 note=67 velocity=0 time=0.15416697499999998\n",
      "note_off channel=0 note=79 velocity=0 time=0.009722241666666666\n",
      "note_on channel=0 note=69 velocity=80 time=0\n",
      "note_on channel=0 note=81 velocity=94 time=0\n",
      "note_off channel=0 note=40 velocity=0 time=0\n",
      "note_off channel=0 note=52 velocity=0 time=0\n",
      "note_on channel=0 note=40 velocity=79 time=0\n",
      "note_on channel=0 note=52 velocity=90 time=0\n",
      "note_off channel=0 note=40 velocity=0 time=0.1562503125\n",
      "note_off channel=0 note=52 velocity=0 time=0.009722241666666666\n",
      "note_on channel=0 note=47 velocity=91 time=0\n",
      "note_off channel=0 note=47 velocity=0 time=0.079399575\n",
      "note_off channel=0 note=69 velocity=0 time=0.005588333333333333\n",
      "note_off channel=0 note=81 velocity=0 time=0\n",
      "note_on channel=0 note=66 velocity=80 time=0\n",
      "note_on channel=0 note=78 velocity=94 time=0\n",
      "note_on channel=0 note=40 velocity=79 time=0.0006985416666666666\n",
      "note_on channel=0 note=52 velocity=94 time=0\n",
      "note_off channel=0 note=40 velocity=0 time=0.077741625\n",
      "note_off channel=0 note=52 velocity=0 time=0.0035122499999999997\n",
      "note_on channel=0 note=47 velocity=89 time=0\n",
      "note_off channel=0 note=47 velocity=0 time=0.07606484999999999\n",
      "note_off channel=0 note=66 velocity=0 time=0.0014128083333333334\n",
      "note_off channel=0 note=78 velocity=0 time=0\n",
      "note_on channel=0 note=67 velocity=80 time=0\n",
      "note_on channel=0 note=79 velocity=94 time=0\n",
      "note_on channel=0 note=40 velocity=79 time=0\n",
      "note_on channel=0 note=52 velocity=90 time=0\n",
      "note_off channel=0 note=40 velocity=0 time=0\n",
      "note_off channel=0 note=52 velocity=0 time=0\n",
      "note_on channel=0 note=40 velocity=84 time=0.0013888916666666665\n",
      "note_on channel=0 note=52 velocity=95 time=0\n",
      "note_off channel=0 note=67 velocity=0 time=0.16597255416666665\n",
      "note_off channel=0 note=79 velocity=0 time=0.009722241666666666\n",
      "note_on channel=0 note=64 velocity=80 time=0\n",
      "note_on channel=0 note=76 velocity=94 time=0\n",
      "note_off channel=0 note=40 velocity=0 time=0\n",
      "note_off channel=0 note=52 velocity=0 time=0\n",
      "note_on channel=0 note=40 velocity=79 time=0\n",
      "note_on channel=0 note=52 velocity=90 time=0\n",
      "note_off channel=0 note=40 velocity=0 time=0.16597255416666665\n",
      "note_off channel=0 note=52 velocity=0 time=0\n",
      "note_on channel=0 note=40 velocity=80 time=0\n",
      "note_on channel=0 note=52 velocity=91 time=0\n",
      "note_off channel=0 note=64 velocity=0 time=0.16388921666666664\n",
      "note_off channel=0 note=76 velocity=0 time=0\n",
      "note_on channel=0 note=66 velocity=80 time=0\n",
      "note_on channel=0 note=78 velocity=94 time=0\n",
      "note_off channel=0 note=40 velocity=0 time=0\n",
      "note_off channel=0 note=52 velocity=0 time=0\n",
      "note_on channel=0 note=40 velocity=79 time=0\n",
      "note_on channel=0 note=52 velocity=90 time=0\n",
      "note_off channel=0 note=40 velocity=0 time=0.16597255416666665\n",
      "note_off channel=0 note=52 velocity=0 time=0\n",
      "note_on channel=0 note=40 velocity=82 time=0\n",
      "note_on channel=0 note=52 velocity=93 time=0\n",
      "note_off channel=0 note=66 velocity=0 time=0.005588333333333333\n",
      "note_off channel=0 note=78 velocity=0 time=0\n",
      "note_on channel=0 note=62 velocity=80 time=0\n",
      "note_on channel=0 note=74 velocity=94 time=0\n",
      "note_off channel=0 note=40 velocity=0 time=0\n",
      "note_off channel=0 note=52 velocity=0 time=0\n",
      "note_on channel=0 note=40 velocity=79 time=0\n",
      "note_on channel=0 note=52 velocity=90 time=0\n",
      "note_off channel=0 note=40 velocity=0 time=0.0035122499999999997\n",
      "note_off channel=0 note=52 velocity=0 time=0\n",
      "note_on channel=0 note=40 velocity=80 time=0\n",
      "note_on channel=0 note=52 velocity=95 time=0\n",
      "note_off channel=0 note=40 velocity=0 time=0.07606484999999999\n",
      "note_off channel=0 note=52 velocity=0 time=0.0014128083333333334\n",
      "note_on channel=0 note=38 velocity=79 time=0\n",
      "note_on channel=0 note=50 velocity=94 time=0\n",
      "note_off channel=0 note=38 velocity=0 time=0.15752812916666667\n",
      "note_off channel=0 note=62 velocity=0 time=0\n",
      "note_off channel=0 note=74 velocity=0 time=0\n",
      "note_off channel=0 note=50 velocity=0 time=0\n",
      "note_on channel=0 note=71 velocity=85 time=0.0013888916666666665\n",
      "note_on channel=0 note=76 velocity=85 time=0\n",
      "note_on channel=0 note=83 velocity=99 time=0\n",
      "note_on channel=0 note=36 velocity=83 time=0\n",
      "note_on channel=0 note=48 velocity=99 time=0\n",
      "note_off channel=0 note=36 velocity=0 time=0.16597255416666665\n",
      "note_off channel=0 note=48 velocity=0 time=0.009722241666666666\n",
      "note_on channel=0 note=43 velocity=88 time=0\n",
      "note_off channel=0 note=43 velocity=0 time=0.1562503125\n",
      "note_off channel=0 note=71 velocity=0 time=0.009722241666666666\n",
      "note_off channel=0 note=76 velocity=0 time=0\n",
      "note_off channel=0 note=83 velocity=0 time=0\n",
      "note_on channel=0 note=67 velocity=81 time=0\n",
      "note_on channel=0 note=79 velocity=95 time=0\n",
      "note_on channel=0 note=36 velocity=79 time=0\n",
      "note_on channel=0 note=48 velocity=91 time=0\n",
      "note_off channel=0 note=67 velocity=0 time=0.15416697499999998\n",
      "note_off channel=0 note=79 velocity=0 time=0.009722241666666666\n",
      "note_on channel=0 note=69 velocity=80 time=0\n",
      "note_on channel=0 note=81 velocity=94 time=0\n",
      "note_off channel=0 note=36 velocity=0 time=0\n",
      "note_off channel=0 note=48 velocity=0 time=0\n",
      "note_on channel=0 note=36 velocity=78 time=0\n",
      "note_on channel=0 note=48 velocity=90 time=0\n",
      "note_off channel=0 note=36 velocity=0 time=0.16597255416666665\n",
      "note_off channel=0 note=48 velocity=0 time=0\n",
      "note_on channel=0 note=36 velocity=81 time=0\n",
      "note_on channel=0 note=48 velocity=93 time=0\n",
      "note_off channel=0 note=69 velocity=0 time=0.16597255416666665\n",
      "note_off channel=0 note=81 velocity=0 time=0\n",
      "note_on channel=0 note=66 velocity=80 time=0\n",
      "note_on channel=0 note=78 velocity=94 time=0\n",
      "note_off channel=0 note=36 velocity=0 time=0\n",
      "note_off channel=0 note=48 velocity=0 time=0\n",
      "note_on channel=0 note=36 velocity=78 time=0\n",
      "note_on channel=0 note=48 velocity=90 time=0\n",
      "note_off channel=0 note=36 velocity=0 time=0.16458366249999998\n",
      "note_off channel=0 note=48 velocity=0 time=0\n",
      "note_on channel=0 note=36 velocity=79 time=0\n",
      "note_on channel=0 note=48 velocity=91 time=0\n"
     ]
    },
    {
     "name": "stdout",
     "output_type": "stream",
     "text": [
      "note_off channel=0 note=66 velocity=0 time=0.16458366249999998\n",
      "note_off channel=0 note=78 velocity=0 time=0\n",
      "note_on channel=0 note=67 velocity=80 time=0\n",
      "note_on channel=0 note=72 velocity=80 time=0\n",
      "note_on channel=0 note=79 velocity=94 time=0\n",
      "note_off channel=0 note=36 velocity=0 time=0\n",
      "note_off channel=0 note=48 velocity=0 time=0\n",
      "note_on channel=0 note=36 velocity=78 time=0\n",
      "note_on channel=0 note=48 velocity=90 time=0\n",
      "note_off channel=0 note=36 velocity=0 time=0.15486142083333332\n",
      "note_off channel=0 note=48 velocity=0 time=0.010416687499999999\n",
      "note_on channel=0 note=43 velocity=93 time=0.0013888916666666665\n",
      "note_off channel=0 note=67 velocity=0 time=0.16597255416666665\n",
      "note_off channel=0 note=72 velocity=0 time=0\n",
      "note_off channel=0 note=43 velocity=0 time=0\n",
      "note_off channel=0 note=79 velocity=0 time=0.009722241666666666\n",
      "note_on channel=0 note=66 velocity=80 time=0\n",
      "note_on channel=0 note=78 velocity=94 time=0\n",
      "note_on channel=0 note=36 velocity=78 time=0.0006944458333333332\n",
      "note_on channel=0 note=48 velocity=90 time=0\n",
      "note_off channel=0 note=36 velocity=0 time=0.1652781083333333\n",
      "note_off channel=0 note=48 velocity=0 time=0\n",
      "note_on channel=0 note=36 velocity=79 time=0\n",
      "note_on channel=0 note=48 velocity=91 time=0\n",
      "note_off channel=0 note=66 velocity=0 time=0.16388921666666664\n",
      "note_off channel=0 note=78 velocity=0 time=0\n",
      "note_on channel=0 note=64 velocity=80 time=0\n",
      "note_on channel=0 note=76 velocity=94 time=0\n",
      "note_off channel=0 note=36 velocity=0 time=0\n",
      "note_off channel=0 note=48 velocity=0 time=0\n",
      "note_on channel=0 note=36 velocity=78 time=0\n",
      "note_on channel=0 note=48 velocity=90 time=0\n",
      "note_off channel=0 note=36 velocity=0 time=0.16597255416666665\n",
      "note_off channel=0 note=48 velocity=0 time=0\n",
      "note_on channel=0 note=36 velocity=81 time=0\n",
      "note_on channel=0 note=48 velocity=93 time=0\n",
      "note_off channel=0 note=64 velocity=0 time=0.16597255416666665\n",
      "note_off channel=0 note=76 velocity=0 time=0\n",
      "note_on channel=0 note=63 velocity=80 time=0\n",
      "note_on channel=0 note=75 velocity=94 time=0\n",
      "note_off channel=0 note=36 velocity=0 time=0\n",
      "note_off channel=0 note=48 velocity=0 time=0\n",
      "note_on channel=0 note=36 velocity=78 time=0\n",
      "note_on channel=0 note=48 velocity=94 time=0\n",
      "note_off channel=0 note=36 velocity=0 time=0.15486142083333332\n",
      "note_off channel=0 note=48 velocity=0 time=0.009722241666666666\n",
      "note_on channel=0 note=34 velocity=79 time=0\n",
      "note_on channel=0 note=46 velocity=95 time=0\n",
      "note_off channel=0 note=34 velocity=0 time=0.15486142083333332\n",
      "note_off channel=0 note=46 velocity=0 time=0.009722241666666666\n",
      "note_on channel=0 note=33 velocity=77 time=0\n",
      "note_on channel=0 note=45 velocity=94 time=0\n",
      "note_off channel=0 note=33 velocity=0 time=0.15486142083333332\n",
      "note_off channel=0 note=63 velocity=0 time=0.010416687499999999\n",
      "note_off channel=0 note=75 velocity=0 time=0\n",
      "note_off channel=0 note=45 velocity=0 time=0\n",
      "note_on channel=0 note=74 velocity=85 time=0.0013888916666666665\n",
      "note_on channel=0 note=86 velocity=99 time=0\n",
      "note_on channel=0 note=31 velocity=82 time=0\n",
      "note_on channel=0 note=43 velocity=99 time=0\n",
      "note_off channel=0 note=74 velocity=0 time=0.34166735\n",
      "note_off channel=0 note=86 velocity=0 time=0\n",
      "note_on channel=0 note=70 velocity=81 time=0\n",
      "note_on channel=0 note=82 velocity=95 time=0\n",
      "note_off channel=0 note=31 velocity=0 time=0\n",
      "note_off channel=0 note=43 velocity=0 time=0\n",
      "note_on channel=0 note=50 velocity=89 time=0\n",
      "note_off channel=0 note=70 velocity=0 time=0.15416697499999998\n",
      "note_off channel=0 note=50 velocity=0 time=0\n",
      "note_off channel=0 note=82 velocity=0 time=0.009722241666666666\n",
      "note_on channel=0 note=72 velocity=80 time=0\n",
      "note_on channel=0 note=84 velocity=94 time=0\n",
      "note_on channel=0 note=55 velocity=88 time=0.0006944458333333332\n",
      "note_off channel=0 note=55 velocity=0 time=0.15555586666666665\n",
      "note_on channel=0 note=58 velocity=91 time=0.010416687499999999\n",
      "note_off channel=0 note=58 velocity=0 time=0.15555586666666665\n",
      "note_off channel=0 note=72 velocity=0 time=0.009722241666666666\n",
      "note_off channel=0 note=84 velocity=0 time=0\n",
      "note_on channel=0 note=69 velocity=80 time=0\n",
      "note_on channel=0 note=81 velocity=94 time=0\n",
      "note_on channel=0 note=55 velocity=88 time=0.0006944458333333332\n",
      "note_off channel=0 note=55 velocity=0 time=0.15416697499999998\n",
      "note_on channel=0 note=43 velocity=89 time=0.010416687499999999\n",
      "note_off channel=0 note=43 velocity=0 time=0.15416697499999998\n",
      "note_off channel=0 note=69 velocity=0 time=0.009722241666666666\n",
      "note_off channel=0 note=81 velocity=0 time=0\n",
      "note_on channel=0 note=70 velocity=80 time=0\n",
      "note_on channel=0 note=82 velocity=94 time=0\n",
      "note_on channel=0 note=50 velocity=88 time=0\n",
      "note_off channel=0 note=70 velocity=0 time=0.33263955416666663\n",
      "note_off channel=0 note=50 velocity=0 time=0\n",
      "note_off channel=0 note=82 velocity=0 time=0.009722241666666666\n",
      "note_on channel=0 note=67 velocity=80 time=0\n",
      "note_on channel=0 note=79 velocity=94 time=0\n",
      "note_on channel=0 note=55 velocity=88 time=0.0006944458333333332\n",
      "note_off channel=0 note=67 velocity=0 time=0.32916732499999996\n",
      "note_off channel=0 note=79 velocity=0 time=0\n",
      "note_on channel=0 note=69 velocity=80 time=0\n",
      "note_on channel=0 note=81 velocity=94 time=0\n",
      "note_off channel=0 note=55 velocity=0 time=0\n",
      "note_on channel=0 note=55 velocity=88 time=0\n",
      "note_off channel=0 note=69 velocity=0 time=0.3319451083333333\n",
      "note_off channel=0 note=81 velocity=0 time=0\n",
      "note_on channel=0 note=65 velocity=80 time=0\n",
      "note_on channel=0 note=70 velocity=80 time=0\n",
      "note_on channel=0 note=77 velocity=94 time=0\n",
      "note_off channel=0 note=55 velocity=0 time=0.16458366249999998\n",
      "note_on channel=0 note=41 velocity=89 time=0\n",
      "note_off channel=0 note=41 velocity=0 time=0.15486142083333332\n",
      "note_on channel=0 note=34 velocity=86 time=0.009722241666666666\n",
      "note_off channel=0 note=34 velocity=0 time=0.15486142083333332\n",
      "note_off channel=0 note=65 velocity=0 time=0.010416687499999999\n",
      "note_off channel=0 note=70 velocity=0 time=0\n",
      "note_off channel=0 note=77 velocity=0 time=0\n",
      "note_on channel=0 note=74 velocity=85 time=0.0013888916666666665\n",
      "note_on channel=0 note=86 velocity=99 time=0\n",
      "note_on channel=0 note=27 velocity=80 time=0\n",
      "note_on channel=0 note=39 velocity=98 time=0\n",
      "note_off channel=0 note=74 velocity=0 time=0.34166735\n",
      "note_off channel=0 note=86 velocity=0 time=0\n",
      "note_on channel=0 note=70 velocity=81 time=0\n",
      "note_on channel=0 note=82 velocity=95 time=0\n",
      "note_off channel=0 note=70 velocity=0 time=0.15416697499999998\n",
      "note_off channel=0 note=82 velocity=0 time=0.009722241666666666\n",
      "note_on channel=0 note=72 velocity=80 time=0\n",
      "note_on channel=0 note=84 velocity=94 time=0\n",
      "note_off channel=0 note=27 velocity=0 time=0\n",
      "note_off channel=0 note=39 velocity=0 time=0\n",
      "note_on channel=0 note=39 velocity=79 time=0\n",
      "note_on channel=0 note=46 velocity=80 time=0\n",
      "note_on channel=0 note=51 velocity=94 time=0\n",
      "note_off channel=0 note=72 velocity=0 time=0.3319451083333333\n",
      "note_off channel=0 note=84 velocity=0 time=0\n",
      "note_on channel=0 note=69 velocity=80 time=0\n",
      "note_on channel=0 note=81 velocity=94 time=0\n",
      "note_off channel=0 note=69 velocity=0 time=0.15486142083333332\n",
      "note_off channel=0 note=81 velocity=0 time=0.0066489687499999995\n",
      "note_on channel=0 note=70 velocity=81 time=0\n",
      "note_on channel=0 note=82 velocity=95 time=0\n",
      "note_off channel=0 note=39 velocity=0 time=0\n",
      "note_off channel=0 note=46 velocity=0 time=0\n",
      "note_off channel=0 note=51 velocity=0 time=0\n",
      "note_on channel=0 note=27 velocity=76 time=0\n",
      "note_on channel=0 note=39 velocity=94 time=0\n",
      "note_off channel=0 note=70 velocity=0 time=0.055555666666666656\n",
      "note_off channel=0 note=82 velocity=0 time=0\n",
      "note_off channel=0 note=27 velocity=0 time=0\n",
      "note_off channel=0 note=39 velocity=0 time=0\n",
      "note_on channel=0 note=39 velocity=92 time=0.0013888916666666665\n",
      "note_off channel=0 note=39 velocity=0 time=0.09027795833333332\n",
      "note_on channel=0 note=46 velocity=88 time=0.004861120833333333\n",
      "note_off channel=0 note=46 velocity=0 time=0.07569459583333332\n",
      "note_on channel=0 note=51 velocity=88 time=0.005555566666666666\n",
      "note_off channel=0 note=51 velocity=0 time=0.07569459583333332\n",
      "note_on channel=0 note=55 velocity=88 time=0.005555566666666666\n",
      "note_off channel=0 note=55 velocity=0 time=0.079166825\n",
      "note_on channel=0 note=58 velocity=89 time=0.004861120833333333\n",
      "note_off channel=0 note=58 velocity=0 time=0.079166825\n",
      "note_on channel=0 note=63 velocity=88 time=0.004861120833333333\n",
      "note_off channel=0 note=63 velocity=0 time=0.07500014999999999\n",
      "note_on channel=0 note=51 velocity=88 time=0.005555566666666666\n",
      "note_off channel=0 note=51 velocity=0 time=0.07569459583333332\n",
      "note_on channel=0 note=58 velocity=88 time=0.004861120833333333\n"
     ]
    },
    {
     "name": "stdout",
     "output_type": "stream",
     "text": [
      "note_off channel=0 note=58 velocity=0 time=0.07986127083333332\n",
      "note_on channel=0 note=63 velocity=91 time=0.005555566666666666\n",
      "control_change channel=0 control=7 value=102 time=0.06111123333333333\n",
      "control_change channel=0 control=7 value=102 time=0\n",
      "note_off channel=0 note=63 velocity=0 time=0.01944448333333333\n",
      "note_on channel=0 note=67 velocity=88 time=0.004861120833333333\n",
      "note_off channel=0 note=67 velocity=0 time=0.07500014999999999\n",
      "note_on channel=0 note=70 velocity=88 time=0.005555566666666666\n",
      "note_off channel=0 note=70 velocity=0 time=0.07569459583333332\n",
      "note_on channel=0 note=75 velocity=88 time=0.004861120833333333\n",
      "note_off channel=0 note=75 velocity=0 time=0.07847237916666666\n",
      "note_on channel=0 note=63 velocity=89 time=0.005555566666666666\n",
      "note_off channel=0 note=63 velocity=0 time=0.07847237916666666\n",
      "note_on channel=0 note=70 velocity=88 time=0.004861120833333333\n",
      "note_off channel=0 note=70 velocity=0 time=0.07569459583333332\n",
      "note_on channel=0 note=75 velocity=88 time=0.004861120833333333\n",
      "note_off channel=0 note=75 velocity=0 time=0.07569459583333332\n",
      "note_on channel=0 note=79 velocity=88 time=0.005555566666666666\n",
      "note_on channel=0 note=82 velocity=85 time=0.04375008749999999\n",
      "note_off channel=0 note=79 velocity=0 time=0.035416737499999996\n",
      "note_on channel=0 note=91 velocity=99 time=0.006250012499999999\n",
      "note_off channel=0 note=82 velocity=0 time=0.09595331041666667\n",
      "note_off channel=0 note=91 velocity=0 time=0\n",
      "note_on channel=0 note=55 velocity=83 time=0\n",
      "note_on channel=0 note=58 velocity=83 time=0\n",
      "note_on channel=0 note=67 velocity=97 time=0\n",
      "note_on channel=0 note=31 velocity=80 time=0.0010781270833333334\n",
      "note_on channel=0 note=43 velocity=93 time=0\n",
      "note_off channel=0 note=55 velocity=0 time=0.045871749999999996\n",
      "note_off channel=0 note=58 velocity=0 time=0\n",
      "note_off channel=0 note=67 velocity=0 time=0\n",
      "note_off channel=0 note=31 velocity=0 time=0\n",
      "note_off channel=0 note=43 velocity=0 time=0\n"
     ]
    }
   ],
   "source": [
    "for msg in mid.play():\n",
    "    print(msg)\n",
    "    port.send(msg)"
   ]
  },
  {
   "cell_type": "code",
   "execution_count": 36,
   "metadata": {},
   "outputs": [
    {
     "data": {
      "text/plain": [
       "[<midi track '' 116 messages>,\n",
       " <midi track 'Piano' 1237 messages>,\n",
       " <midi track 'Piano' 1001 messages>]"
      ]
     },
     "execution_count": 36,
     "metadata": {},
     "output_type": "execute_result"
    }
   ],
   "source": [
    "mid.tracks"
   ]
  },
  {
   "cell_type": "code",
   "execution_count": 37,
   "metadata": {},
   "outputs": [
    {
     "data": {
      "text/plain": [
       "100.31182558333279"
      ]
     },
     "execution_count": 37,
     "metadata": {},
     "output_type": "execute_result"
    }
   ],
   "source": [
    "mid.length"
   ]
  },
  {
   "cell_type": "code",
   "execution_count": 38,
   "metadata": {},
   "outputs": [
    {
     "data": {
      "text/plain": [
       "480"
      ]
     },
     "execution_count": 38,
     "metadata": {},
     "output_type": "execute_result"
    }
   ],
   "source": [
    "mid.ticks_per_beat"
   ]
  },
  {
   "cell_type": "code",
   "execution_count": 73,
   "metadata": {},
   "outputs": [
    {
     "data": {
      "text/plain": [
       "179.47199339543064"
      ]
     },
     "execution_count": 73,
     "metadata": {},
     "output_type": "execute_result"
    }
   ],
   "source": [
    "mido.tempo2bpm(334314)"
   ]
  },
  {
   "cell_type": "code",
   "execution_count": 39,
   "metadata": {
    "scrolled": true
   },
   "outputs": [
    {
     "data": {
      "text/plain": [
       "<midi track 'Piano' 1237 messages>"
      ]
     },
     "execution_count": 39,
     "metadata": {},
     "output_type": "execute_result"
    }
   ],
   "source": [
    "mid.tracks[1]"
   ]
  },
  {
   "cell_type": "code",
   "execution_count": 48,
   "metadata": {},
   "outputs": [
    {
     "data": {
      "text/plain": [
       "<message note_on channel=0 note=64 velocity=89 time=14>"
      ]
     },
     "execution_count": 48,
     "metadata": {},
     "output_type": "execute_result"
    }
   ],
   "source": [
    "mid.tracks[1][15]"
   ]
  },
  {
   "cell_type": "code",
   "execution_count": 74,
   "metadata": {},
   "outputs": [
    {
     "data": {
      "text/plain": [
       "<meta message time_signature numerator=4 denominator=4 clocks_per_click=24 notated_32nd_notes_per_beat=8 time=0>"
      ]
     },
     "execution_count": 74,
     "metadata": {},
     "output_type": "execute_result"
    }
   ],
   "source": [
    "mid.tracks[0][0]"
   ]
  },
  {
   "cell_type": "code",
   "execution_count": 63,
   "metadata": {},
   "outputs": [
    {
     "data": {
      "text/plain": [
       "0.009668516666666667"
      ]
     },
     "execution_count": 63,
     "metadata": {},
     "output_type": "execute_result"
    }
   ],
   "source": [
    "mido.tick2second(mid.tracks[1][15].time, mid.ticks_per_beat, 331492)"
   ]
  },
  {
   "cell_type": "code",
   "execution_count": 71,
   "metadata": {},
   "outputs": [
    {
     "data": {
      "text/plain": [
       "<meta message set_tempo tempo=334314 time=18360>"
      ]
     },
     "execution_count": 71,
     "metadata": {},
     "output_type": "execute_result"
    }
   ],
   "source": [
    "mid.tracks[0][4]"
   ]
  },
  {
   "cell_type": "code",
   "execution_count": 70,
   "metadata": {},
   "outputs": [],
   "source": []
  },
  {
   "cell_type": "code",
   "execution_count": null,
   "metadata": {},
   "outputs": [],
   "source": []
  }
 ],
 "metadata": {
  "kernelspec": {
   "display_name": "Python 3",
   "language": "python",
   "name": "python3"
  },
  "language_info": {
   "codemirror_mode": {
    "name": "ipython",
    "version": 3
   },
   "file_extension": ".py",
   "mimetype": "text/x-python",
   "name": "python",
   "nbconvert_exporter": "python",
   "pygments_lexer": "ipython3",
   "version": "3.6.9"
  }
 },
 "nbformat": 4,
 "nbformat_minor": 2
}
